M48
;Layer_Color=9474304
;FILE_FORMAT=2:5
INCH,LZ
;TYPE=PLATED
T1F00S00C0.01181
T2F00S00C0.04331
%
T01
X0133858Y0005905
X0145669
X0139764Y0017717
X0153917Y0016122
X0153169Y0031122
X015748Y004626
X0163386Y0042323
X0175197Y0041339
X0133858Y0029528
X011811Y0033465
X0125984Y0014764
X0106299Y0024606
X0107283Y0033465
X0104331Y0041339
X009252
X0080709
X0068898
X0057086
X0045276
X0045276Y0035433
X0036417Y0027559
X0027559Y0029528
X0015748
X0009843Y0041339
X0033465
Y0017717
X003937Y0005905
X0049213Y000689
X0074803Y0005905
X0068898Y0017717
X0074803Y0029528
X0086614
X009252Y0019685
X0062992Y0029528
Y0053149
X0074803
X0086614
X0084646Y0062008
Y0080709
X0071457Y0075787
X007185Y0068898
X0051181Y0076772
X0051181Y0088583
X0033465Y0088583
X0029528Y0084646
X0019685Y0095472
Y0113189
X0009843Y0112205
X0015748Y0124016
X0027559
X0033465Y0135827
X0045276
X0057086
X0068898
X0074803Y0124016
X0062992
X0051181
X0045276Y0112205
X0057086Y0112205
X0062992Y0105807
X0080709Y0112205
X009252
X0099409Y0104331
X0100394Y0095472
X0103347Y0091535
X0110236Y0100394
X0113189Y0084646
X0109252Y0066929
X0105315Y0069882
X0110236Y0053149
X0098425
X0051181
X003937
X0027559
X0015748
X0003937
X0009843Y006496
X0015748Y0076772
X0033465Y0112205
X0021654Y0135827
X0009843
X0015748Y0147638
X0027559
X003937
X0051181
X0062992
X0086614
X009252Y0159449
X0080709
X0045276
X0033465
X0110236Y0147638
X0107283Y0139764
X0112205Y0120079
X0116142
X0120079Y0120079
X0122047Y0124016
X0116142Y0135827
X0133858Y0131102
X0139764Y0135827
X0151575
X0163386
X0175197
X0176181Y0127953
X015517Y0124358
X0145669Y0124016
Y0100394
X015748
X0151575Y0088583
X0161417Y0080709
X0167323Y0084646
X0163386Y006496
X0175197
X0169291Y0053149
X015748
X0133858
X0126969Y0050197
X0122047Y0076772
X0128937Y0091535
Y0097441
X0133858Y0100394
X0133858Y0105512
X0117126Y0101378
X0116142Y0159449
X0127953
X015748Y0147638
X0169291
X0165354Y0113189
T02
X0116299Y0005906
X0126299
X0106299
X0096299
X0004921Y0078268
Y0088268
Y0098268
Y0108268
Y0118268
X0049213Y017126
X0059213
X0081535
X0091535
X0101535
X0111535
X0139272Y0153799
Y0143799
X0150689Y0143642
Y0153642
X0181102Y0119409
Y0109409
Y009941
Y008941
Y0079409
X0150591Y0073976
Y0063976
X0138779
Y0073976
M30
