G04 Layer_Color=14360714*
%FSLAX25Y25*%
%MOIN*%
G70*
G01*
G75*
%ADD25C,0.02756*%
%ADD27C,0.01968*%
%ADD43C,0.00394*%
D25*
X147224Y16535D02*
D03*
D27*
X90551Y110236D02*
D03*
X82677Y3150D02*
D03*
X55512Y101378D02*
D03*
X70472Y110236D02*
D03*
D43*
X153150Y41539D02*
Y49409D01*
X148425Y41539D02*
Y49409D01*
X153150D01*
X148425Y41539D02*
X153150D01*
X140945Y41142D02*
Y49013D01*
X145669Y41142D02*
Y49013D01*
X140945Y41142D02*
X145669D01*
X140945Y49013D02*
X145669D01*
X145689Y138642D02*
Y148642D01*
X155689D01*
X145689Y138642D02*
X155689D01*
X145689Y151142D02*
X148189Y148642D01*
X145689Y151142D02*
Y156142D01*
X148189Y158642D01*
X153189D01*
X155689Y156142D01*
Y151142D02*
Y156142D01*
X153189Y148642D02*
X155689Y151142D01*
Y138642D02*
Y148642D01*
X134272Y138799D02*
Y148799D01*
X144272D01*
X134272Y138799D02*
X144272D01*
X134272Y151299D02*
X136772Y148799D01*
X134272Y151299D02*
Y156299D01*
X136772Y158799D01*
X141772D01*
X144272Y156299D01*
Y151299D02*
Y156299D01*
X141772Y148799D02*
X144272Y151299D01*
Y138799D02*
Y148799D01*
X-79Y115768D02*
X2421Y113268D01*
X-79Y115768D02*
Y120768D01*
X2421Y123268D01*
X7421D01*
X9921Y120768D01*
Y115768D02*
Y120768D01*
X7421Y113268D02*
X9921Y115768D01*
X7421Y103268D02*
X9921Y105768D01*
Y110768D01*
X7421Y113268D02*
X9921Y110768D01*
X2421Y113268D02*
X7421D01*
X-79Y110768D02*
X2421Y113268D01*
X-79Y105768D02*
Y110768D01*
Y105768D02*
X2421Y103268D01*
X-79Y95768D02*
X2421Y93268D01*
X-79Y95768D02*
Y100768D01*
X2421Y103268D01*
X7421D01*
X9921Y100768D01*
Y95768D02*
Y100768D01*
X7421Y93268D02*
X9921Y95768D01*
Y73268D02*
Y83268D01*
X7421D02*
X9921Y85768D01*
Y90768D01*
X7421Y93268D02*
X9921Y90768D01*
X2421Y93268D02*
X7421D01*
X-79Y90768D02*
X2421Y93268D01*
X-79Y85768D02*
Y90768D01*
Y85768D02*
X2421Y83268D01*
X-79Y73268D02*
X9921D01*
X-79Y83268D02*
X9921D01*
X-79Y73268D02*
Y83268D01*
X176102Y116909D02*
X178602Y114409D01*
X176102Y116909D02*
Y121909D01*
X178602Y124409D01*
X183602D01*
X186102Y121909D01*
Y116909D02*
Y121909D01*
X183602Y114409D02*
X186102Y116909D01*
X183602Y104409D02*
X186102Y106909D01*
Y111909D01*
X183602Y114409D02*
X186102Y111909D01*
X178602Y114409D02*
X183602D01*
X176102Y111909D02*
X178602Y114409D01*
X176102Y106909D02*
Y111909D01*
Y106909D02*
X178602Y104409D01*
X176102Y96909D02*
X178602Y94410D01*
X176102Y96909D02*
Y101909D01*
X178602Y104409D01*
X183602D01*
X186102Y101909D01*
Y96909D02*
Y101909D01*
X183602Y94410D02*
X186102Y96909D01*
Y74410D02*
Y84409D01*
X183602D02*
X186102Y86910D01*
Y91909D01*
X183602Y94410D02*
X186102Y91909D01*
X178602Y94410D02*
X183602D01*
X176102Y91909D02*
X178602Y94410D01*
X176102Y86910D02*
Y91909D01*
Y86910D02*
X178602Y84409D01*
X176102Y74410D02*
X186102D01*
X176102Y84409D02*
X186102D01*
X176102Y74410D02*
Y84409D01*
X88583Y76772D02*
Y112205D01*
Y76772D02*
X124016D01*
Y112205D01*
X88583D02*
X124016D01*
X100689Y149213D02*
X106004D01*
Y143504D02*
Y151772D01*
X100689Y143504D02*
Y151772D01*
X106004D01*
X100689Y143504D02*
X106004D01*
X98819Y143901D02*
Y151772D01*
X94095Y143901D02*
Y151772D01*
X98819D01*
X94095Y143901D02*
X98819D01*
X155591Y68976D02*
Y78976D01*
X145591Y68976D02*
X155591D01*
X145591Y78976D02*
X155591D01*
X153091Y68976D02*
X155591Y66476D01*
Y61476D02*
Y66476D01*
X153091Y58976D02*
X155591Y61476D01*
X148091Y58976D02*
X153091D01*
X145591Y61476D02*
X148091Y58976D01*
X145591Y61476D02*
Y66476D01*
X148091Y68976D01*
X145591D02*
Y78976D01*
X133780Y58976D02*
Y68976D01*
X143780D01*
X133780Y58976D02*
X143780D01*
X133780Y71476D02*
X136279Y68976D01*
X133780Y71476D02*
Y76476D01*
X136279Y78976D01*
X141279D01*
X143780Y76476D01*
Y71476D02*
Y76476D01*
X141279Y68976D02*
X143780Y71476D01*
Y58976D02*
Y68976D01*
X54213Y166260D02*
X64213D01*
X54213D02*
Y176260D01*
X64213Y166260D02*
Y176260D01*
X51713Y166260D02*
X54213Y168760D01*
X46713Y166260D02*
X51713D01*
X44213Y168760D02*
X46713Y166260D01*
X44213Y168760D02*
Y173760D01*
X46713Y176260D01*
X51713D01*
X54213Y173760D01*
Y176260D02*
X64213D01*
X84567Y985D02*
Y26575D01*
X57166D02*
X84567D01*
X57166Y985D02*
Y26575D01*
Y985D02*
X84567D01*
X84035Y176260D02*
X86535Y173760D01*
X79035Y176260D02*
X84035D01*
X76535Y173760D02*
X79035Y176260D01*
X76535Y168760D02*
Y173760D01*
Y168760D02*
X79035Y166260D01*
X84035D01*
X86535Y168760D01*
X94035Y166260D02*
X96535Y168760D01*
X89035Y166260D02*
X94035D01*
X86535Y168760D02*
X89035Y166260D01*
X86535Y168760D02*
Y173760D01*
X89035Y176260D01*
X94035D01*
X96535Y173760D01*
X106535Y176260D02*
X116535D01*
X104035D02*
X106535Y173760D01*
X99035Y176260D02*
X104035D01*
X96535Y173760D02*
X99035Y176260D01*
X96535Y168760D02*
Y173760D01*
Y168760D02*
X99035Y166260D01*
X104035D01*
X106535Y168760D01*
X116535Y166260D02*
Y176260D01*
X106535Y166260D02*
Y176260D01*
Y166260D02*
X116535D01*
X73619Y119685D02*
Y124409D01*
X65748Y119685D02*
Y124409D01*
Y119685D02*
X73619D01*
X65748Y124409D02*
X73619D01*
X60630Y102162D02*
X65354D01*
X60630Y94291D02*
X65354D01*
Y102162D01*
X60630Y94291D02*
Y102162D01*
X77362Y84446D02*
X82087D01*
X77362Y76575D02*
X82087D01*
Y84446D01*
X77362Y76575D02*
Y84446D01*
X45472Y102952D02*
X56889D01*
X45472Y91929D02*
X56889D01*
X45472D02*
Y102952D01*
X56889Y91929D02*
Y102952D01*
X14964Y104921D02*
X22835D01*
X14964Y109646D02*
X22835D01*
Y104921D02*
Y109646D01*
X14964Y104921D02*
Y109646D01*
X14567Y86024D02*
X22438D01*
X14567Y81299D02*
X22438D01*
X14567D02*
Y86024D01*
X22438Y81299D02*
Y86024D01*
X14964Y87205D02*
X22835D01*
X14964Y91929D02*
X22835D01*
Y87205D02*
Y91929D01*
X14964Y87205D02*
Y91929D01*
Y93110D02*
X22835D01*
X14964Y97835D02*
X22835D01*
Y93110D02*
Y97835D01*
X14964Y93110D02*
Y97835D01*
Y99016D02*
X22835D01*
X14964Y103740D02*
X22835D01*
Y99016D02*
Y103740D01*
X14964Y99016D02*
Y103740D01*
X14567Y115551D02*
X22438D01*
X14567Y110827D02*
X22438D01*
X14567D02*
Y115551D01*
X22438Y110827D02*
Y115551D01*
X45076Y119685D02*
Y124409D01*
X37205Y119685D02*
Y124409D01*
Y119685D02*
X45076D01*
X37205Y124409D02*
X45076D01*
X37602Y74410D02*
Y79134D01*
X45472Y74410D02*
Y79134D01*
X37602D02*
X45472D01*
X37602Y74410D02*
X45472D01*
X116342Y65551D02*
Y70276D01*
X124213Y65551D02*
Y70276D01*
X116342D02*
X124213D01*
X116342Y65551D02*
X124213D01*
X105709Y121263D02*
Y129134D01*
X100984Y121263D02*
Y129134D01*
X105709D01*
X100984Y121263D02*
X105709D01*
X96257Y118701D02*
Y123425D01*
X88386Y118701D02*
Y123425D01*
Y118701D02*
X96257D01*
X88386Y123425D02*
X96257D01*
Y125591D02*
Y130315D01*
X88386Y125591D02*
Y130315D01*
Y125591D02*
X96257D01*
X88386Y130315D02*
X96257D01*
X46850Y35233D02*
X51575D01*
X46850Y27362D02*
X51575D01*
Y35233D01*
X46850Y27362D02*
Y35233D01*
X38976D02*
X43701D01*
X38976Y27362D02*
X43701D01*
Y35233D01*
X38976Y27362D02*
Y35233D01*
X157087Y28346D02*
Y36217D01*
X161811Y28346D02*
Y36217D01*
X157087Y28346D02*
X161811D01*
X157087Y36217D02*
X161811D01*
X113779Y37602D02*
Y45472D01*
X109055Y37602D02*
Y45472D01*
X113779D01*
X109055Y37602D02*
X113779D01*
X116535Y37205D02*
Y45076D01*
X121260Y37205D02*
Y45076D01*
X116535Y37205D02*
X121260D01*
X116535Y45076D02*
X121260D01*
X92323Y32874D02*
X100194D01*
X92323Y28150D02*
X100194D01*
X92323D02*
Y32874D01*
X100194Y28150D02*
Y32874D01*
Y21260D02*
Y25984D01*
X92323Y21260D02*
Y25984D01*
Y21260D02*
X100194D01*
X92323Y25984D02*
X100194D01*
X100194Y13386D02*
Y18110D01*
X92323Y13386D02*
Y18110D01*
Y13386D02*
X100194D01*
X92323Y18110D02*
X100194D01*
X43701Y17028D02*
Y22343D01*
X41142D02*
X49409D01*
X41142Y17028D02*
X49409D01*
X41142D02*
Y22343D01*
X49409Y17028D02*
Y22343D01*
X41142Y14173D02*
X49013D01*
X41142Y9449D02*
X49013D01*
X41142D02*
Y14173D01*
X49013Y9449D02*
Y14173D01*
X124606Y37205D02*
Y45076D01*
X129331Y37205D02*
Y45076D01*
X124606Y37205D02*
X129331D01*
X124606Y45076D02*
X129331D01*
X98799Y10905D02*
X101299Y8405D01*
X93799Y10905D02*
X98799D01*
X91299Y8405D02*
X93799Y10905D01*
X91299Y3405D02*
Y8405D01*
Y3405D02*
X93799Y905D01*
X98799D01*
X101299Y3405D01*
X108799Y905D02*
X111299Y3405D01*
X103799Y905D02*
X108799D01*
X101299Y3405D02*
X103799Y905D01*
X101299Y3405D02*
Y8405D01*
X103799Y10905D01*
X108799D01*
X111299Y8405D01*
X121299Y10905D02*
X131299D01*
X118799D02*
X121299Y8405D01*
X113799Y10905D02*
X118799D01*
X111299Y8405D02*
X113799Y10905D01*
X111299Y3405D02*
Y8405D01*
Y3405D02*
X113799Y905D01*
X118799D01*
X121299Y3405D01*
X131299Y905D02*
Y10905D01*
X121299Y905D02*
Y10905D01*
Y905D02*
X131299D01*
X149605Y13976D02*
Y33268D01*
X125984D02*
X149605D01*
X125984Y13976D02*
Y33268D01*
Y13976D02*
X149605D01*
X164961Y28346D02*
Y36217D01*
X169685Y28346D02*
Y36217D01*
X164961Y28346D02*
X169685D01*
X164961Y36217D02*
X169685D01*
X168898Y76575D02*
Y84446D01*
X173622Y76575D02*
Y84446D01*
X168898Y76575D02*
X173622D01*
X168898Y84446D02*
X173622D01*
Y90751D02*
Y98622D01*
X168898Y90751D02*
Y98622D01*
X173622D01*
X168898Y90751D02*
X173622D01*
Y120279D02*
Y128150D01*
X168898Y120279D02*
Y128150D01*
X173622D01*
X168898Y120279D02*
X173622D01*
X168898Y105515D02*
X173622D01*
X168898Y113386D02*
X173622D01*
X168898Y105515D02*
Y113386D01*
X173622Y105515D02*
Y113386D01*
X81053Y92520D02*
Y112205D01*
X68553Y92520D02*
X81053D01*
X68553D02*
Y112205D01*
X81053D01*
M02*
