G04 Layer_Color=16711935*
%FSLAX25Y25*%
%MOIN*%
G70*
G01*
G75*
%ADD38R,0.08674X0.08674*%
%ADD39C,0.08674*%
%ADD40R,0.08674X0.08674*%
%ADD41C,0.03556*%
D38*
X150689Y143642D02*
D03*
X139272Y143799D02*
D03*
X4921Y78268D02*
D03*
X181102Y79409D02*
D03*
X150591Y73976D02*
D03*
X138779Y63976D02*
D03*
D39*
X150689Y153642D02*
D03*
X139272Y153799D02*
D03*
X4921Y98268D02*
D03*
Y88268D02*
D03*
Y108268D02*
D03*
Y118268D02*
D03*
X181102Y99410D02*
D03*
Y89410D02*
D03*
Y109409D02*
D03*
Y119409D02*
D03*
X150591Y63976D02*
D03*
X138779Y73976D02*
D03*
X49213Y171260D02*
D03*
X91535D02*
D03*
X101535D02*
D03*
X81535D02*
D03*
X106299Y5906D02*
D03*
X116299D02*
D03*
X96299D02*
D03*
D40*
X59213Y171260D02*
D03*
X111535D02*
D03*
X126299Y5906D02*
D03*
D41*
X155170Y124358D02*
D03*
X133858Y131102D02*
D03*
Y105512D02*
D03*
X107283Y139764D02*
D03*
X120079Y120079D02*
D03*
X112205Y120079D02*
D03*
X116142D02*
D03*
X106299Y24606D02*
D03*
X36417Y27559D02*
D03*
X45276Y35433D02*
D03*
X49213Y6890D02*
D03*
X45276Y112205D02*
D03*
X29528Y84646D02*
D03*
X176181Y127953D02*
D03*
X161417Y80709D02*
D03*
X84646Y62008D02*
D03*
X109252Y66929D02*
D03*
X105315Y69882D02*
D03*
X128937Y91535D02*
D03*
Y97441D02*
D03*
X117126Y101378D02*
D03*
X165354Y113189D02*
D03*
X100394Y95472D02*
D03*
X163386Y42323D02*
D03*
X126969Y50197D02*
D03*
X71850Y68898D02*
D03*
X71457Y75787D02*
D03*
X84646Y80709D02*
D03*
X62992Y105807D02*
D03*
X113189Y84646D02*
D03*
X99409Y104331D02*
D03*
X51181Y88583D02*
D03*
X19685Y95472D02*
D03*
Y113189D02*
D03*
X167323Y84646D02*
D03*
X118110Y33465D02*
D03*
X107283D02*
D03*
X157480Y46260D02*
D03*
X153169Y31122D02*
D03*
X125984Y14764D02*
D03*
X153917Y16122D02*
D03*
X92520Y19685D02*
D03*
X103347Y91535D02*
D03*
M02*
