G04 Layer_Color=8388736*
%FSLAX25Y25*%
%MOIN*%
G70*
G01*
G75*
%ADD29R,0.05721X0.04737*%
%ADD30O,0.06312X0.01981*%
%ADD31O,0.01981X0.06312*%
%ADD32R,0.10249X0.13792*%
%ADD33R,0.10249X0.04737*%
%ADD34R,0.04737X0.05721*%
%ADD35R,0.03162X0.05131*%
G04:AMPARAMS|DCode=36|XSize=69.02mil|YSize=31.62mil|CornerRadius=15.81mil|HoleSize=0mil|Usage=FLASHONLY|Rotation=180.000|XOffset=0mil|YOffset=0mil|HoleType=Round|Shape=RoundedRectangle|*
%AMROUNDEDRECTD36*
21,1,0.06902,0.00000,0,0,180.0*
21,1,0.03740,0.03162,0,0,180.0*
1,1,0.03162,-0.01870,0.00000*
1,1,0.03162,0.01870,0.00000*
1,1,0.03162,0.01870,0.00000*
1,1,0.03162,-0.01870,0.00000*
%
%ADD36ROUNDEDRECTD36*%
%ADD37R,0.14973X0.07887*%
%ADD38R,0.08674X0.08674*%
%ADD39C,0.08674*%
%ADD40R,0.08674X0.08674*%
%ADD41C,0.03556*%
D29*
X150787Y49213D02*
D03*
Y41339D02*
D03*
X143307D02*
D03*
Y49213D02*
D03*
X103347Y143701D02*
D03*
Y151575D02*
D03*
X96457D02*
D03*
Y143701D02*
D03*
X62992Y102362D02*
D03*
Y94488D02*
D03*
X79724Y84646D02*
D03*
Y76772D02*
D03*
X103347Y128937D02*
D03*
Y121063D02*
D03*
X49213Y35433D02*
D03*
Y27559D02*
D03*
X41339Y35433D02*
D03*
Y27559D02*
D03*
X159449Y28543D02*
D03*
Y36417D02*
D03*
X111417Y45276D02*
D03*
Y37402D02*
D03*
X118898D02*
D03*
Y45276D02*
D03*
X126969Y37402D02*
D03*
Y45276D02*
D03*
X167323Y28543D02*
D03*
Y36417D02*
D03*
X171260Y76772D02*
D03*
Y84646D02*
D03*
Y98425D02*
D03*
Y90551D02*
D03*
Y127953D02*
D03*
Y120079D02*
D03*
Y105315D02*
D03*
Y113189D02*
D03*
D30*
X89764Y105315D02*
D03*
Y103347D02*
D03*
Y101378D02*
D03*
Y99410D02*
D03*
Y97441D02*
D03*
Y95472D02*
D03*
Y93504D02*
D03*
Y91535D02*
D03*
Y89567D02*
D03*
Y87598D02*
D03*
Y85630D02*
D03*
Y83661D02*
D03*
X122835D02*
D03*
Y85630D02*
D03*
Y87598D02*
D03*
Y89567D02*
D03*
Y91535D02*
D03*
Y93504D02*
D03*
Y95472D02*
D03*
Y97441D02*
D03*
Y99410D02*
D03*
Y101378D02*
D03*
Y103347D02*
D03*
Y105315D02*
D03*
D31*
X95472Y77953D02*
D03*
X97441D02*
D03*
X99410D02*
D03*
X101378D02*
D03*
X103347D02*
D03*
X105315D02*
D03*
X107283D02*
D03*
X109252D02*
D03*
X111221D02*
D03*
X113189D02*
D03*
X115157D02*
D03*
X117126D02*
D03*
Y111024D02*
D03*
X115157D02*
D03*
X113189D02*
D03*
X111221D02*
D03*
X109252D02*
D03*
X107283D02*
D03*
X105315D02*
D03*
X103347D02*
D03*
X101378D02*
D03*
X99410D02*
D03*
X97441D02*
D03*
X95472D02*
D03*
D32*
X59449Y13780D02*
D03*
D33*
X82284Y22835D02*
D03*
Y13780D02*
D03*
Y4724D02*
D03*
D34*
X73819Y122047D02*
D03*
X65945D02*
D03*
X22638Y107283D02*
D03*
X14764D02*
D03*
Y83661D02*
D03*
X22638D02*
D03*
Y89567D02*
D03*
X14764D02*
D03*
X22638Y95472D02*
D03*
X14764D02*
D03*
X22638Y101378D02*
D03*
X14764D02*
D03*
Y113189D02*
D03*
X22638D02*
D03*
X45276Y122047D02*
D03*
X37402D02*
D03*
Y76772D02*
D03*
X45276D02*
D03*
X116142Y67913D02*
D03*
X124016D02*
D03*
X96457Y121063D02*
D03*
X88583D02*
D03*
X96457Y127953D02*
D03*
X88583D02*
D03*
X92520Y30512D02*
D03*
X100394D02*
D03*
Y23622D02*
D03*
X92520D02*
D03*
X100394Y15748D02*
D03*
X92520D02*
D03*
X49213Y19685D02*
D03*
X41339D02*
D03*
Y11811D02*
D03*
X49213D02*
D03*
D35*
X54921Y102559D02*
D03*
X51181D02*
D03*
X47441D02*
D03*
Y92323D02*
D03*
X51181D02*
D03*
X54921D02*
D03*
D36*
X148425Y16122D02*
D03*
Y21122D02*
D03*
Y26122D02*
D03*
Y31122D02*
D03*
X127165D02*
D03*
Y26122D02*
D03*
Y21122D02*
D03*
Y16122D02*
D03*
D37*
X74803Y94488D02*
D03*
Y110236D02*
D03*
D38*
X150689Y143642D02*
D03*
X139272Y143799D02*
D03*
X4921Y78268D02*
D03*
X181102Y79409D02*
D03*
X150591Y73976D02*
D03*
X138779Y63976D02*
D03*
D39*
X150689Y153642D02*
D03*
X139272Y153799D02*
D03*
X4921Y98268D02*
D03*
Y88268D02*
D03*
Y108268D02*
D03*
Y118268D02*
D03*
X181102Y99410D02*
D03*
Y89410D02*
D03*
Y109409D02*
D03*
Y119409D02*
D03*
X150591Y63976D02*
D03*
X138779Y73976D02*
D03*
X49213Y171260D02*
D03*
X91535D02*
D03*
X101535D02*
D03*
X81535D02*
D03*
X106299Y5906D02*
D03*
X116299D02*
D03*
X96299D02*
D03*
D40*
X59213Y171260D02*
D03*
X111535D02*
D03*
X126299Y5906D02*
D03*
D41*
X155170Y124358D02*
D03*
X133858Y131102D02*
D03*
Y105512D02*
D03*
X107283Y139764D02*
D03*
X120079Y120079D02*
D03*
X112205Y120079D02*
D03*
X116142D02*
D03*
X106299Y24606D02*
D03*
X36417Y27559D02*
D03*
X45276Y35433D02*
D03*
X49213Y6890D02*
D03*
X45276Y112205D02*
D03*
X29528Y84646D02*
D03*
X176181Y127953D02*
D03*
X161417Y80709D02*
D03*
X84646Y62008D02*
D03*
X109252Y66929D02*
D03*
X105315Y69882D02*
D03*
X128937Y91535D02*
D03*
Y97441D02*
D03*
X117126Y101378D02*
D03*
X165354Y113189D02*
D03*
X100394Y95472D02*
D03*
X163386Y42323D02*
D03*
X126969Y50197D02*
D03*
X71850Y68898D02*
D03*
X71457Y75787D02*
D03*
X84646Y80709D02*
D03*
X62992Y105807D02*
D03*
X113189Y84646D02*
D03*
X99409Y104331D02*
D03*
X51181Y88583D02*
D03*
X19685Y95472D02*
D03*
Y113189D02*
D03*
X167323Y84646D02*
D03*
X118110Y33465D02*
D03*
X107283D02*
D03*
X157480Y46260D02*
D03*
X153169Y31122D02*
D03*
X125984Y14764D02*
D03*
X153917Y16122D02*
D03*
X92520Y19685D02*
D03*
X103347Y91535D02*
D03*
M02*
