G04 Layer_Physical_Order=2*
G04 Layer_Color=16711680*
%FSLAX25Y25*%
%MOIN*%
G70*
G01*
G75*
%ADD19C,0.01575*%
%ADD20C,0.00787*%
%ADD21C,0.01181*%
%ADD22R,0.07874X0.07874*%
%ADD23C,0.07874*%
%ADD24R,0.07874X0.07874*%
%ADD25C,0.02756*%
G36*
X186205Y137463D02*
Y120725D01*
X185717Y120646D01*
X185240Y121798D01*
X184481Y122788D01*
X183491Y123547D01*
X182339Y124024D01*
X181102Y124187D01*
X179866Y124024D01*
X178713Y123547D01*
X178300Y123230D01*
X177800Y123476D01*
Y126455D01*
X178233Y127103D01*
X178402Y127953D01*
X178233Y128803D01*
X177751Y129523D01*
X177031Y130004D01*
X176181Y130173D01*
X175331Y130004D01*
X174611Y129523D01*
X174129Y128803D01*
X173960Y127953D01*
X174129Y127103D01*
X174563Y126455D01*
Y123574D01*
X174434Y123445D01*
X174083Y122920D01*
X173959Y122301D01*
Y116209D01*
X160273Y102522D01*
X159922Y101997D01*
X159799Y101378D01*
Y82207D01*
X159366Y81559D01*
X159197Y80709D01*
X159366Y79859D01*
X159847Y79138D01*
X160567Y78657D01*
X161417Y78488D01*
X162267Y78657D01*
X162987Y79138D01*
X163469Y79859D01*
X163638Y80709D01*
X163469Y81559D01*
X163036Y82207D01*
Y100708D01*
X176722Y114394D01*
X177073Y114919D01*
X177197Y115539D01*
Y115941D01*
X177670Y116101D01*
X177724Y116031D01*
X178713Y115272D01*
X179866Y114794D01*
X180874Y114662D01*
Y114157D01*
X179866Y114024D01*
X178713Y113547D01*
X177724Y112788D01*
X176965Y111798D01*
X176487Y110646D01*
X176324Y109409D01*
X176487Y108173D01*
X176806Y107402D01*
X166178Y96774D01*
X165828Y96249D01*
X165704Y95630D01*
Y86144D01*
X165271Y85496D01*
X165102Y84646D01*
X165271Y83796D01*
X165753Y83075D01*
X166473Y82594D01*
X167323Y82425D01*
X168173Y82594D01*
X168893Y83075D01*
X169374Y83796D01*
X169544Y84646D01*
X169374Y85496D01*
X168941Y86144D01*
Y94959D01*
X177078Y103097D01*
X177455Y102766D01*
X176790Y101899D01*
X176292Y100698D01*
X176254Y100409D01*
X181102D01*
Y98409D01*
X176254D01*
X176292Y98121D01*
X176790Y96920D01*
X177581Y95888D01*
X178613Y95097D01*
X179814Y94599D01*
X180108Y94561D01*
Y94056D01*
X179866Y94024D01*
X178713Y93547D01*
X177724Y92788D01*
X176965Y91798D01*
X176487Y90646D01*
X176324Y89410D01*
X176487Y88173D01*
X176965Y87020D01*
X177724Y86031D01*
X178713Y85272D01*
X179866Y84794D01*
X180989Y84646D01*
X180956Y84146D01*
X176365D01*
Y74672D01*
X185705D01*
X185839Y74672D01*
X186205Y74348D01*
Y39703D01*
X147305Y803D01*
X131360D01*
X131036Y1168D01*
X131036Y1303D01*
Y9811D01*
X149225D01*
X149845Y9935D01*
X150370Y10285D01*
X154003Y13918D01*
X154767Y14071D01*
X155488Y14552D01*
X155969Y15272D01*
X156121Y16037D01*
X158625Y18541D01*
X158976Y19066D01*
X159099Y19685D01*
Y44762D01*
X159532Y45410D01*
X159701Y46260D01*
X159532Y47110D01*
X159051Y47830D01*
X158330Y48311D01*
X157480Y48480D01*
X156631Y48311D01*
X155910Y47830D01*
X155429Y47110D01*
X155260Y46260D01*
X155429Y45410D01*
X155862Y44762D01*
Y20355D01*
X153832Y18326D01*
X153068Y18174D01*
X152347Y17692D01*
X151866Y16972D01*
X151714Y16207D01*
X148555Y13048D01*
X128059D01*
X127791Y13548D01*
X128036Y13914D01*
X128205Y14764D01*
X128036Y15613D01*
X127554Y16334D01*
X126834Y16815D01*
X125984Y16984D01*
X125134Y16815D01*
X124795Y16589D01*
X120554Y20830D01*
X120029Y21180D01*
X119409Y21304D01*
X94018D01*
X93370Y21737D01*
X92520Y21906D01*
X91670Y21737D01*
X90949Y21255D01*
X90468Y20535D01*
X90299Y19685D01*
X90468Y18835D01*
X90949Y18115D01*
X91670Y17633D01*
X92520Y17464D01*
X93370Y17633D01*
X94018Y18067D01*
X118739D01*
X123186Y13619D01*
X123292Y13548D01*
X123141Y13048D01*
X110775D01*
X110155Y12925D01*
X109630Y12574D01*
X109280Y12049D01*
X109156Y11430D01*
Y10249D01*
X108708Y10028D01*
X108688Y10043D01*
X107536Y10521D01*
X106299Y10683D01*
X105063Y10521D01*
X103910Y10043D01*
X102921Y9284D01*
X102161Y8294D01*
X101684Y7142D01*
X101652Y6900D01*
X101148D01*
X101109Y7194D01*
X100612Y8395D01*
X99820Y9427D01*
X98789Y10218D01*
X97588Y10715D01*
X97299Y10753D01*
Y5906D01*
X96299D01*
Y4905D01*
X91451D01*
X91489Y4617D01*
X91987Y3416D01*
X92778Y2384D01*
X93809Y1593D01*
X94510Y1303D01*
X94411Y803D01*
X39703D01*
X803Y39703D01*
Y73531D01*
X7369D01*
X19563Y61338D01*
Y42795D01*
X19686Y42176D01*
X20037Y41651D01*
X34214Y27474D01*
X34366Y26709D01*
X34847Y25989D01*
X35568Y25508D01*
X36417Y25338D01*
X37267Y25508D01*
X37988Y25989D01*
X38469Y26709D01*
X38638Y27559D01*
X38469Y28409D01*
X37988Y29129D01*
X37267Y29611D01*
X36503Y29763D01*
X22800Y43466D01*
Y60389D01*
X83148D01*
X83796Y59956D01*
X84646Y59787D01*
X85496Y59956D01*
X86216Y60438D01*
X86697Y61158D01*
X86866Y62008D01*
X86697Y62858D01*
X86264Y63506D01*
Y79211D01*
X86697Y79859D01*
X86866Y80709D01*
X86697Y81559D01*
X86216Y82279D01*
X85496Y82760D01*
X84646Y82929D01*
X84466Y82894D01*
X77774Y89585D01*
X77314Y89893D01*
X76772Y90000D01*
X52853D01*
X52751Y90153D01*
X52031Y90634D01*
X51181Y90803D01*
X50331Y90634D01*
X49611Y90153D01*
X49130Y89433D01*
X48961Y88583D01*
X49130Y87733D01*
X49611Y87012D01*
X50331Y86531D01*
X51181Y86362D01*
X52031Y86531D01*
X52751Y87012D01*
X52853Y87165D01*
X76184D01*
X82461Y80888D01*
X82425Y80709D01*
X82594Y79859D01*
X83027Y79211D01*
Y63626D01*
X21851D01*
X9658Y75820D01*
Y80716D01*
X20830Y91887D01*
X21180Y92412D01*
X21304Y93032D01*
Y93975D01*
X21737Y94623D01*
X21906Y95472D01*
X21737Y96322D01*
X21255Y97043D01*
X21103Y97145D01*
Y111517D01*
X21255Y111619D01*
X21737Y112339D01*
X21906Y113189D01*
X21737Y114039D01*
X21255Y114759D01*
X20535Y115241D01*
X19685Y115410D01*
X18835Y115241D01*
X18115Y114759D01*
X17633Y114039D01*
X17464Y113189D01*
X17633Y112339D01*
X18115Y111619D01*
X18267Y111517D01*
Y97145D01*
X18115Y97043D01*
X17633Y96322D01*
X17464Y95472D01*
X17633Y94623D01*
X18067Y93975D01*
Y93702D01*
X7369Y83005D01*
X5067D01*
X5034Y83505D01*
X6158Y83653D01*
X7310Y84130D01*
X8300Y84889D01*
X9059Y85879D01*
X9536Y87031D01*
X9699Y88268D01*
X9536Y89504D01*
X9059Y90657D01*
X8300Y91646D01*
X7310Y92405D01*
X6158Y92883D01*
X5150Y93016D01*
Y93520D01*
X6158Y93653D01*
X7310Y94130D01*
X8300Y94889D01*
X9059Y95879D01*
X9536Y97031D01*
X9699Y98268D01*
X9536Y99504D01*
X9059Y100657D01*
X8300Y101646D01*
X7310Y102406D01*
X6158Y102883D01*
X5150Y103016D01*
Y103520D01*
X6158Y103653D01*
X7310Y104130D01*
X8300Y104889D01*
X9059Y105879D01*
X9536Y107031D01*
X9699Y108268D01*
X9536Y109504D01*
X9059Y110657D01*
X8300Y111646D01*
X7310Y112406D01*
X6158Y112883D01*
X5916Y112915D01*
Y113419D01*
X6210Y113458D01*
X7411Y113955D01*
X8442Y114747D01*
X9234Y115778D01*
X9731Y116979D01*
X9769Y117268D01*
X4921D01*
Y118268D01*
X3921D01*
Y123116D01*
X3632Y123078D01*
X2431Y122580D01*
X1400Y121789D01*
X1276Y121627D01*
X803Y121788D01*
Y137463D01*
X39703Y176363D01*
X47897D01*
X47976Y175875D01*
X46824Y175398D01*
X45834Y174638D01*
X45075Y173649D01*
X44598Y172496D01*
X44435Y171260D01*
X44598Y170023D01*
X45075Y168871D01*
X45834Y167881D01*
X46824Y167122D01*
X47976Y166645D01*
X49213Y166482D01*
X50449Y166645D01*
X51136Y166929D01*
X99130Y118934D01*
X99655Y118583D01*
X100275Y118460D01*
X110707D01*
X111355Y118027D01*
X112205Y117858D01*
X113055Y118027D01*
X113775Y118509D01*
X113923Y118730D01*
X114423D01*
X114571Y118509D01*
X115292Y118027D01*
X116142Y117858D01*
X116991Y118027D01*
X117712Y118509D01*
X117860Y118730D01*
X118360D01*
X118508Y118508D01*
X119229Y118027D01*
X120079Y117858D01*
X120928Y118027D01*
X121649Y118508D01*
X122130Y119229D01*
X122299Y120079D01*
X122130Y120928D01*
X121649Y121649D01*
X120928Y122130D01*
X120485Y122218D01*
X108902Y133801D01*
Y138266D01*
X109335Y138914D01*
X109504Y139764D01*
X109335Y140614D01*
X108854Y141334D01*
X108133Y141815D01*
X107283Y141984D01*
X106434Y141815D01*
X105713Y141334D01*
X105232Y140614D01*
X105063Y139764D01*
X105232Y138914D01*
X105665Y138266D01*
Y133131D01*
X105788Y132511D01*
X106139Y131986D01*
X112963Y125163D01*
X112756Y124663D01*
X110976D01*
X110357Y124539D01*
X109832Y124189D01*
X109715Y124072D01*
X103611D01*
X61622Y166061D01*
X61813Y166523D01*
X63950D01*
Y175863D01*
X63950Y175997D01*
X64274Y176363D01*
X79647D01*
X79746Y175863D01*
X79046Y175572D01*
X78014Y174781D01*
X77223Y173750D01*
X76726Y172549D01*
X76688Y172260D01*
X81535D01*
Y171260D01*
X82535D01*
Y166412D01*
X82824Y166450D01*
X84025Y166947D01*
X85057Y167739D01*
X85848Y168770D01*
X86345Y169971D01*
X86384Y170265D01*
X86888D01*
X86920Y170023D01*
X87398Y168871D01*
X88157Y167881D01*
X89147Y167122D01*
X90299Y166645D01*
X91535Y166482D01*
X92772Y166645D01*
X93924Y167122D01*
X94914Y167881D01*
X95673Y168871D01*
X96150Y170023D01*
X96283Y171032D01*
X96788D01*
X96920Y170023D01*
X97398Y168871D01*
X98157Y167881D01*
X99146Y167122D01*
X100299Y166645D01*
X100318Y166642D01*
Y163228D01*
X100411Y162763D01*
X100675Y162368D01*
X127720Y135323D01*
Y101582D01*
X125505Y99367D01*
X125241Y98972D01*
X125148Y98506D01*
Y96376D01*
X125241Y95910D01*
X125505Y95515D01*
X127416Y93604D01*
X127367Y93106D01*
X127367Y93106D01*
X126885Y92385D01*
X126716Y91535D01*
X126885Y90686D01*
X127367Y89965D01*
X128087Y89484D01*
X128937Y89315D01*
X129787Y89484D01*
X130507Y89965D01*
X130989Y90686D01*
X131158Y91535D01*
X130989Y92385D01*
X130507Y93106D01*
X130154Y93342D01*
Y93804D01*
X130061Y94270D01*
X129798Y94665D01*
X129566Y94896D01*
X129712Y95374D01*
X129787Y95389D01*
X130507Y95871D01*
X130989Y96591D01*
X131158Y97441D01*
X130989Y98291D01*
X130639Y98814D01*
X131385Y99560D01*
X131649Y99954D01*
X131741Y100420D01*
Y103860D01*
X132241Y104011D01*
X132288Y103942D01*
X133009Y103460D01*
X133858Y103291D01*
X134708Y103460D01*
X135429Y103942D01*
X135910Y104662D01*
X136079Y105512D01*
X135910Y106362D01*
X135477Y107010D01*
Y129604D01*
X135910Y130253D01*
X136079Y131102D01*
X135910Y131952D01*
X135429Y132673D01*
X134708Y133154D01*
X133858Y133323D01*
X133009Y133154D01*
X132288Y132673D01*
X132241Y132603D01*
X131741Y132755D01*
Y136484D01*
X131649Y136950D01*
X131385Y137345D01*
X112752Y155977D01*
Y166523D01*
X116272D01*
Y175863D01*
X116272Y175997D01*
X116597Y176363D01*
X147305D01*
X186205Y137463D01*
D02*
G37*
%LPC*%
G36*
X71457Y78008D02*
X70607Y77839D01*
X69886Y77358D01*
X69405Y76637D01*
X69236Y75787D01*
X69405Y74938D01*
X69886Y74217D01*
X70240Y73981D01*
Y70407D01*
X69799Y69747D01*
X69630Y68898D01*
X69799Y68048D01*
X70280Y67327D01*
X71001Y66846D01*
X71850Y66677D01*
X72700Y66846D01*
X73421Y67327D01*
X73902Y68048D01*
X74071Y68898D01*
X73902Y69747D01*
X73421Y70468D01*
X72700Y70949D01*
X72674Y70955D01*
Y73981D01*
X73027Y74217D01*
X73508Y74938D01*
X73677Y75787D01*
X73508Y76637D01*
X73027Y77358D01*
X72307Y77839D01*
X71457Y78008D01*
D02*
G37*
G36*
X165354Y115410D02*
X164505Y115241D01*
X163784Y114759D01*
X163303Y114039D01*
X163134Y113189D01*
X163217Y112772D01*
X139260Y88815D01*
X111425D01*
X105272Y94968D01*
X104877Y95231D01*
X104412Y95324D01*
X102736D01*
X102614Y95473D01*
X102445Y96322D01*
X101964Y97043D01*
X101243Y97524D01*
X100394Y97693D01*
X99544Y97524D01*
X98823Y97043D01*
X98342Y96322D01*
X98173Y95472D01*
X98342Y94623D01*
X98823Y93902D01*
X99544Y93421D01*
X100394Y93252D01*
X100810Y93335D01*
X100898Y93247D01*
X101293Y92983D01*
X101759Y92890D01*
X103908D01*
X110060Y86738D01*
X110455Y86474D01*
X110920Y86381D01*
X139764D01*
X140229Y86474D01*
X140624Y86738D01*
X164938Y111051D01*
X165354Y110968D01*
X166204Y111137D01*
X166925Y111619D01*
X167406Y112339D01*
X167575Y113189D01*
X167406Y114039D01*
X166925Y114759D01*
X166204Y115241D01*
X165354Y115410D01*
D02*
G37*
G36*
X149689Y142642D02*
X145752D01*
Y138705D01*
X149689D01*
Y142642D01*
D02*
G37*
G36*
X5921Y123116D02*
Y119268D01*
X9769D01*
X9731Y119556D01*
X9234Y120757D01*
X8442Y121789D01*
X7411Y122580D01*
X6210Y123078D01*
X5921Y123116D01*
D02*
G37*
G36*
X118110Y35685D02*
X117260Y35516D01*
X116612Y35083D01*
X108781D01*
X108133Y35516D01*
X107283Y35685D01*
X106434Y35516D01*
X105713Y35035D01*
X105232Y34314D01*
X105063Y33465D01*
X105232Y32615D01*
X105713Y31894D01*
X106434Y31413D01*
X107283Y31244D01*
X108133Y31413D01*
X108781Y31846D01*
X116612D01*
X117260Y31413D01*
X118110Y31244D01*
X118960Y31413D01*
X119681Y31894D01*
X120162Y32615D01*
X120331Y33465D01*
X120162Y34314D01*
X119681Y35035D01*
X118960Y35516D01*
X118110Y35685D01*
D02*
G37*
G36*
X95299Y10753D02*
X95010Y10715D01*
X93809Y10218D01*
X92778Y9427D01*
X91987Y8395D01*
X91489Y7194D01*
X91451Y6905D01*
X95299D01*
Y10753D01*
D02*
G37*
G36*
X105315Y72102D02*
X104465Y71934D01*
X103745Y71452D01*
X103263Y70732D01*
X103094Y69882D01*
X103263Y69032D01*
X103745Y68312D01*
X104465Y67830D01*
X105315Y67661D01*
X105463Y67540D01*
Y65864D01*
X105556Y65398D01*
X105820Y65003D01*
X121487Y49336D01*
X121882Y49072D01*
X122347Y48980D01*
X125162D01*
X125398Y48627D01*
X126119Y48145D01*
X126969Y47976D01*
X127818Y48145D01*
X128539Y48627D01*
X129020Y49347D01*
X129035Y49422D01*
X129514Y49567D01*
X129745Y49336D01*
X130140Y49072D01*
X130605Y48980D01*
X160913D01*
X162169Y47724D01*
Y44129D01*
X161816Y43893D01*
X161334Y43173D01*
X161165Y42323D01*
X161334Y41473D01*
X161816Y40753D01*
X162536Y40271D01*
X163386Y40102D01*
X164236Y40271D01*
X164956Y40753D01*
X165437Y41473D01*
X165606Y42323D01*
X165437Y43173D01*
X164956Y43893D01*
X164603Y44129D01*
Y48228D01*
X164510Y48694D01*
X164246Y49089D01*
X162278Y51057D01*
X161883Y51321D01*
X161417Y51414D01*
X131109D01*
X128894Y53629D01*
X128499Y53893D01*
X128034Y53986D01*
X123917D01*
X111390Y66513D01*
X111473Y66929D01*
X111304Y67779D01*
X110822Y68499D01*
X110102Y68981D01*
X109252Y69150D01*
X108402Y68981D01*
X108291Y68906D01*
X107763Y69044D01*
X107541Y69377D01*
X107453Y69465D01*
X107536Y69882D01*
X107367Y70732D01*
X106885Y71452D01*
X106165Y71934D01*
X105315Y72102D01*
D02*
G37*
G36*
X138779Y78754D02*
X137543Y78592D01*
X136391Y78114D01*
X135401Y77355D01*
X134642Y76365D01*
X134164Y75213D01*
X134002Y73976D01*
X134164Y72740D01*
X134642Y71587D01*
X135401Y70598D01*
X136391Y69839D01*
X137543Y69361D01*
X138416Y69246D01*
X138666Y69213D01*
X138634Y68713D01*
X134043D01*
Y59239D01*
X143517D01*
Y68713D01*
X138926D01*
X138893Y69213D01*
X139143Y69246D01*
X140016Y69361D01*
X141168Y69839D01*
X142158Y70598D01*
X142917Y71587D01*
X143395Y72740D01*
X143557Y73976D01*
X143395Y75213D01*
X142917Y76365D01*
X142158Y77355D01*
X141168Y78114D01*
X140016Y78592D01*
X138779Y78754D01*
D02*
G37*
G36*
X155328Y78713D02*
X145853D01*
Y69239D01*
X150445D01*
X150477Y68739D01*
X150227Y68706D01*
X149354Y68591D01*
X148202Y68114D01*
X147212Y67355D01*
X146453Y66365D01*
X145975Y65213D01*
X145813Y63976D01*
X145975Y62740D01*
X146453Y61587D01*
X147212Y60598D01*
X148202Y59839D01*
X149354Y59361D01*
X150591Y59198D01*
X151827Y59361D01*
X152980Y59839D01*
X153969Y60598D01*
X154728Y61587D01*
X155206Y62740D01*
X155368Y63976D01*
X155206Y65213D01*
X154728Y66365D01*
X153969Y67355D01*
X152980Y68114D01*
X151827Y68591D01*
X150954Y68706D01*
X150704Y68739D01*
X150736Y69239D01*
X155328D01*
Y78713D01*
D02*
G37*
G36*
X151689Y158490D02*
Y154642D01*
X155537D01*
X155499Y154930D01*
X155001Y156131D01*
X154210Y157163D01*
X153179Y157954D01*
X151978Y158452D01*
X151689Y158490D01*
D02*
G37*
G36*
X149689Y158490D02*
X149400Y158452D01*
X148199Y157954D01*
X147168Y157163D01*
X146377Y156131D01*
X145879Y154930D01*
X145841Y154642D01*
X149689D01*
Y158490D01*
D02*
G37*
G36*
X138272Y158647D02*
X137983Y158609D01*
X136782Y158112D01*
X135750Y157320D01*
X134959Y156289D01*
X134462Y155088D01*
X134424Y154799D01*
X138272D01*
Y158647D01*
D02*
G37*
G36*
X80535Y170260D02*
X76688D01*
X76726Y169971D01*
X77223Y168770D01*
X78014Y167739D01*
X79046Y166947D01*
X80247Y166450D01*
X80535Y166412D01*
Y170260D01*
D02*
G37*
G36*
X140272Y158647D02*
Y154799D01*
X144120D01*
X144082Y155088D01*
X143584Y156289D01*
X142793Y157320D01*
X141762Y158112D01*
X140560Y158609D01*
X140272Y158647D01*
D02*
G37*
G36*
X138272Y142799D02*
X134335D01*
Y138862D01*
X138272D01*
Y142799D01*
D02*
G37*
G36*
X155626Y142642D02*
X151689D01*
Y138705D01*
X155626D01*
Y142642D01*
D02*
G37*
G36*
X144209Y142799D02*
X140272D01*
Y138862D01*
X144209D01*
Y142799D01*
D02*
G37*
G36*
X144120Y152799D02*
X139272D01*
X134424D01*
X134462Y152510D01*
X134959Y151309D01*
X135750Y150278D01*
X136782Y149487D01*
X137387Y149236D01*
X137287Y148736D01*
X134335D01*
Y144799D01*
X139272D01*
X144209D01*
Y148736D01*
X141256D01*
X141157Y149236D01*
X141762Y149487D01*
X142793Y150278D01*
X143584Y151309D01*
X144082Y152510D01*
X144120Y152799D01*
D02*
G37*
G36*
X150689Y153642D02*
D01*
Y152642D01*
X145841D01*
X145879Y152353D01*
X146377Y151152D01*
X147168Y150121D01*
X148199Y149329D01*
X148804Y149079D01*
X148705Y148579D01*
X145752D01*
Y144642D01*
X150689D01*
X155626D01*
Y148579D01*
X152673D01*
X152574Y149079D01*
X153179Y149329D01*
X154210Y150121D01*
X155001Y151152D01*
X155499Y152353D01*
X155537Y152642D01*
X150689D01*
Y153642D01*
D02*
G37*
%LPD*%
D19*
X92520Y19685D02*
X119409D01*
X124331Y14764D01*
X133858Y105512D02*
Y131102D01*
X120079Y120079D02*
Y120336D01*
X107283Y133131D02*
X120079Y120336D01*
X107283Y133131D02*
Y139764D01*
X100275Y120079D02*
X112205D01*
X102940Y122453D02*
X110386D01*
X49213Y171141D02*
X100275Y120079D01*
X110386Y122453D02*
X110976Y123044D01*
X113433D01*
X116142Y120335D01*
Y120079D02*
Y120335D01*
X59213Y166181D02*
X102940Y122453D01*
X59213Y166181D02*
Y171260D01*
X49213Y171141D02*
Y171260D01*
X110775Y5906D02*
Y11430D01*
X21181Y42795D02*
Y62008D01*
Y42795D02*
X36417Y27559D01*
X45276Y35433D02*
X49213Y31496D01*
Y6890D02*
Y31496D01*
Y6890D02*
X50197Y5906D01*
X96299D01*
X29528Y96457D02*
X45276Y112205D01*
X29528Y84646D02*
Y96457D01*
X21181Y62008D02*
X84646D01*
X4921Y78268D02*
X21181Y62008D01*
X19685Y93032D02*
Y95472D01*
X4921Y78268D02*
X19685Y93032D01*
X176181Y122904D02*
Y127953D01*
X175578Y122301D02*
X176181Y122904D01*
X175578Y115539D02*
Y122301D01*
X161417Y101378D02*
X175578Y115539D01*
X161417Y80709D02*
Y101378D01*
X84646Y62008D02*
Y80709D01*
X167323Y95630D02*
X181102Y109409D01*
X167323Y84646D02*
Y95630D01*
X107283Y33465D02*
X118110D01*
X157480Y19685D02*
Y46260D01*
X153917Y16122D02*
X157480Y19685D01*
X149225Y11430D02*
X153917Y16122D01*
X110775Y11430D02*
X149225D01*
X106299Y5906D02*
X110775D01*
X124331Y14764D02*
X125984D01*
D20*
X150689Y143642D02*
X152414Y141917D01*
Y124358D02*
Y141917D01*
X110920Y87598D02*
X139764D01*
X130605Y50197D02*
X161417D01*
X163386Y48228D01*
Y42323D02*
Y48228D01*
X109252Y66929D02*
X123413Y52768D01*
X105315Y69882D02*
X106680Y68516D01*
Y65864D02*
Y68516D01*
Y65864D02*
X122347Y50197D01*
X126969D01*
X128937Y97441D02*
Y98833D01*
X130524Y100420D01*
Y136484D01*
X111535Y155473D02*
X130524Y136484D01*
X111535Y155473D02*
Y171260D01*
X101535Y163228D02*
Y171260D01*
Y163228D02*
X128937Y135827D01*
Y101078D02*
Y135827D01*
X126365Y98506D02*
X128937Y101078D01*
X126365Y96376D02*
Y98506D01*
Y96376D02*
X128937Y93804D01*
Y91535D02*
Y93804D01*
X139764Y87598D02*
X165354Y113189D01*
X114173Y104331D02*
X117126Y101378D01*
X99409Y104331D02*
X114173D01*
X93504Y91535D02*
X98425D01*
X95472Y94488D02*
X98425Y91535D01*
X95472Y94488D02*
Y100394D01*
X99409Y104331D01*
X92520Y90551D02*
X93504Y91535D01*
X128034Y52768D02*
X130605Y50197D01*
X123413Y52768D02*
X128034D01*
X71457Y69291D02*
X71850Y68898D01*
X71457Y69291D02*
Y75787D01*
X85630Y90551D02*
X92520D01*
X70374Y105807D02*
X85630Y90551D01*
X62992Y105807D02*
X70374D01*
X104331Y84646D02*
X113189D01*
X104412Y94107D02*
X110920Y87598D01*
X103347Y85630D02*
X104331Y84646D01*
X100394Y95472D02*
X101759Y94107D01*
X104412D01*
X98425Y91535D02*
X103347D01*
Y85630D02*
Y91535D01*
D21*
X146653Y24606D02*
X153169Y31122D01*
X106299Y24606D02*
X146653D01*
X76772Y88583D02*
X84646Y80709D01*
X51181Y88583D02*
X76772D01*
X19685Y95472D02*
Y113189D01*
D22*
X150689Y143642D02*
D03*
X139272Y143799D02*
D03*
X4921Y78268D02*
D03*
X181102Y79409D02*
D03*
X150591Y73976D02*
D03*
X138779Y63976D02*
D03*
D23*
X150689Y153642D02*
D03*
X139272Y153799D02*
D03*
X4921Y98268D02*
D03*
Y88268D02*
D03*
Y108268D02*
D03*
Y118268D02*
D03*
X181102Y99410D02*
D03*
Y89410D02*
D03*
Y109409D02*
D03*
Y119409D02*
D03*
X150591Y63976D02*
D03*
X138779Y73976D02*
D03*
X49213Y171260D02*
D03*
X91535D02*
D03*
X101535D02*
D03*
X81535D02*
D03*
X106299Y5906D02*
D03*
X116299D02*
D03*
X96299D02*
D03*
D24*
X59213Y171260D02*
D03*
X111535D02*
D03*
X126299Y5906D02*
D03*
D25*
X155170Y124358D02*
D03*
X133858Y131102D02*
D03*
Y105512D02*
D03*
X107283Y139764D02*
D03*
X120079Y120079D02*
D03*
X112205Y120079D02*
D03*
X116142D02*
D03*
X106299Y24606D02*
D03*
X36417Y27559D02*
D03*
X45276Y35433D02*
D03*
X49213Y6890D02*
D03*
X45276Y112205D02*
D03*
X29528Y84646D02*
D03*
X176181Y127953D02*
D03*
X161417Y80709D02*
D03*
X84646Y62008D02*
D03*
X109252Y66929D02*
D03*
X105315Y69882D02*
D03*
X128937Y91535D02*
D03*
Y97441D02*
D03*
X117126Y101378D02*
D03*
X165354Y113189D02*
D03*
X100394Y95472D02*
D03*
X163386Y42323D02*
D03*
X126969Y50197D02*
D03*
X71850Y68898D02*
D03*
X71457Y75787D02*
D03*
X84646Y80709D02*
D03*
X62992Y105807D02*
D03*
X113189Y84646D02*
D03*
X99409Y104331D02*
D03*
X51181Y88583D02*
D03*
X19685Y95472D02*
D03*
Y113189D02*
D03*
X167323Y84646D02*
D03*
X118110Y33465D02*
D03*
X107283D02*
D03*
X157480Y46260D02*
D03*
X153169Y31122D02*
D03*
X125984Y14764D02*
D03*
X153917Y16122D02*
D03*
X92520Y19685D02*
D03*
X103347Y91535D02*
D03*
X29528Y29528D02*
D03*
Y68898D02*
D03*
X19685Y127953D02*
D03*
X29528Y147638D02*
D03*
X39370Y49213D02*
D03*
Y88583D02*
D03*
X49213Y108268D02*
D03*
X39370Y127953D02*
D03*
X49213Y147638D02*
D03*
X68898Y29528D02*
D03*
X59055Y49213D02*
D03*
Y127953D02*
D03*
X78740Y49213D02*
D03*
X88583Y108268D02*
D03*
X78740Y127953D02*
D03*
X88583Y147638D02*
D03*
X98425Y49213D02*
D03*
X108268Y147638D02*
D03*
X118110Y127953D02*
D03*
X127953Y147638D02*
D03*
X147638Y108268D02*
D03*
X167323Y68898D02*
D03*
X157480Y88583D02*
D03*
X167323Y147638D02*
D03*
M02*
