G04 Layer_Physical_Order=1*
G04 Layer_Color=255*
%FSLAX25Y25*%
%MOIN*%
G70*
G01*
G75*
%ADD10R,0.04921X0.03937*%
%ADD11O,0.05512X0.01181*%
%ADD12O,0.01181X0.05512*%
%ADD13R,0.09449X0.12992*%
%ADD14R,0.09449X0.03937*%
%ADD15R,0.05118X0.04134*%
%ADD16R,0.03937X0.04921*%
%ADD17R,0.02362X0.04331*%
G04:AMPARAMS|DCode=18|XSize=61.02mil|YSize=23.62mil|CornerRadius=11.81mil|HoleSize=0mil|Usage=FLASHONLY|Rotation=180.000|XOffset=0mil|YOffset=0mil|HoleType=Round|Shape=RoundedRectangle|*
%AMROUNDEDRECTD18*
21,1,0.06102,0.00000,0,0,180.0*
21,1,0.03740,0.02362,0,0,180.0*
1,1,0.02362,-0.01870,0.00000*
1,1,0.02362,0.01870,0.00000*
1,1,0.02362,0.01870,0.00000*
1,1,0.02362,-0.01870,0.00000*
%
%ADD18ROUNDEDRECTD18*%
%ADD19C,0.00787*%
%ADD20C,0.01575*%
%ADD21C,0.01181*%
%ADD22R,0.07874X0.07874*%
%ADD23C,0.07874*%
%ADD24R,0.07874X0.07874*%
%ADD25C,0.02756*%
G36*
X167999Y92091D02*
Y87783D01*
X167999D01*
Y87414D01*
X167828Y86985D01*
X167613Y86809D01*
X167323Y86866D01*
X166473Y86697D01*
X165753Y86216D01*
X165517Y85863D01*
X146173D01*
X129982Y102054D01*
X129587Y102318D01*
X129121Y102411D01*
X126843D01*
X126535Y102911D01*
X126622Y103347D01*
X126572Y103598D01*
X126966Y104098D01*
X132184D01*
X132288Y103942D01*
X133009Y103460D01*
X133858Y103291D01*
X134708Y103460D01*
X135429Y103942D01*
X135910Y104662D01*
X136079Y105512D01*
X135910Y106362D01*
X135429Y107082D01*
X134708Y107563D01*
X133858Y107732D01*
X133009Y107563D01*
X132288Y107082D01*
X131921Y106532D01*
X125681D01*
X125543Y106625D01*
X125000Y106733D01*
X120669D01*
X120127Y106625D01*
X119712Y106348D01*
X113989D01*
X113523Y106255D01*
X113128Y105991D01*
X112328Y105191D01*
X112065Y104797D01*
X111972Y104331D01*
Y93504D01*
X112065Y93038D01*
X112328Y92643D01*
X113726Y91246D01*
X113534Y90784D01*
X107135D01*
Y94185D01*
X107043Y94651D01*
X106779Y95046D01*
X98055Y103770D01*
Y104657D01*
X97962Y105123D01*
X97698Y105518D01*
X96714Y106502D01*
X96487Y106654D01*
X96597Y106818D01*
X96619Y106929D01*
X96785Y107284D01*
X97189Y107287D01*
X97441Y107237D01*
X98062Y107360D01*
X98588Y107712D01*
X98598Y107728D01*
X98867Y107548D01*
X99410Y107440D01*
X99952Y107548D01*
X100394Y107843D01*
X100835Y107548D01*
X101378Y107440D01*
X101920Y107548D01*
X102362Y107843D01*
X102804Y107548D01*
X103347Y107440D01*
X103889Y107548D01*
X104331Y107843D01*
X104772Y107548D01*
X105315Y107440D01*
X105858Y107548D01*
X106299Y107843D01*
X106741Y107548D01*
X107283Y107440D01*
X107826Y107548D01*
X108268Y107843D01*
X108709Y107548D01*
X109252Y107440D01*
X109794Y107548D01*
X110236Y107843D01*
X110678Y107548D01*
X111221Y107440D01*
X111763Y107548D01*
X112205Y107843D01*
X112646Y107548D01*
X113189Y107440D01*
X113732Y107548D01*
X114173Y107843D01*
X114615Y107548D01*
X115157Y107440D01*
X115700Y107548D01*
X116142Y107843D01*
X116583Y107548D01*
X117126Y107440D01*
X117668Y107548D01*
X118129Y107856D01*
X118436Y108316D01*
X118544Y108858D01*
Y109807D01*
X150283D01*
X167999Y92091D01*
D02*
G37*
G36*
X104701Y93681D02*
Y90674D01*
X104208Y90181D01*
X102785D01*
X102539Y90428D01*
X102144Y90691D01*
X101678Y90784D01*
X93896D01*
X93501Y91284D01*
X93551Y91535D01*
X93501Y91787D01*
X93896Y92287D01*
X94488D01*
X94954Y92379D01*
X95349Y92643D01*
X96961Y94255D01*
X98588D01*
X98823Y93902D01*
X99544Y93421D01*
X100394Y93252D01*
X101243Y93421D01*
X101964Y93902D01*
X102445Y94623D01*
X102546Y95129D01*
X103088Y95293D01*
X104701Y93681D01*
D02*
G37*
G36*
X115909Y82085D02*
X115409Y81690D01*
X115157Y81740D01*
X114537Y81616D01*
X114011Y81265D01*
X114000Y81249D01*
X113732Y81428D01*
X113189Y81536D01*
X112646Y81428D01*
X112205Y81133D01*
X111763Y81428D01*
X111221Y81536D01*
X110678Y81428D01*
X110236Y81133D01*
X109794Y81428D01*
X109252Y81536D01*
X108709Y81428D01*
X108268Y81133D01*
X107826Y81428D01*
X107283Y81536D01*
X106741Y81428D01*
X106299Y81133D01*
X105858Y81428D01*
X105315Y81536D01*
X104772Y81428D01*
X104331Y81133D01*
X103889Y81428D01*
X103347Y81536D01*
X102804Y81428D01*
X102362Y81133D01*
X101920Y81428D01*
X101378Y81536D01*
X100835Y81428D01*
X100394Y81133D01*
X99952Y81428D01*
X99410Y81536D01*
X98867Y81428D01*
X98425Y81133D01*
X97983Y81428D01*
X97441Y81536D01*
X96898Y81428D01*
X96457Y81133D01*
X96015Y81428D01*
X95472Y81536D01*
X94930Y81428D01*
X94470Y81121D01*
X94163Y80661D01*
X94055Y80118D01*
Y75787D01*
X94163Y75245D01*
X94470Y74785D01*
X94819Y74552D01*
X94703Y74052D01*
X82985D01*
Y78311D01*
X83517Y78843D01*
X83796Y78657D01*
X84646Y78488D01*
X85496Y78657D01*
X86216Y79138D01*
X86697Y79859D01*
X86866Y80709D01*
X86697Y81559D01*
X86216Y82279D01*
X86014Y82414D01*
X86037Y82595D01*
X86557Y82718D01*
X86596Y82659D01*
X87056Y82351D01*
X87598Y82244D01*
X91929D01*
X92472Y82351D01*
X92932Y82659D01*
X93239Y83119D01*
X93347Y83661D01*
X93239Y84204D01*
X92944Y84646D01*
X93239Y85087D01*
X93347Y85630D01*
X93239Y86172D01*
X92944Y86614D01*
X93239Y87056D01*
X93347Y87598D01*
X93297Y87850D01*
X93655Y88350D01*
X101174D01*
X101421Y88103D01*
X101815Y87839D01*
X102281Y87747D01*
X104712D01*
X105178Y87839D01*
X105572Y88103D01*
X105819Y88350D01*
X115909D01*
Y82085D01*
D02*
G37*
G36*
X119083Y103527D02*
X119048Y103347D01*
X119171Y102726D01*
X119523Y102200D01*
X119539Y102189D01*
X119359Y101920D01*
X119252Y101378D01*
X119359Y100835D01*
X119655Y100394D01*
X119359Y99952D01*
X119252Y99410D01*
X119359Y98867D01*
X119655Y98425D01*
X119359Y97983D01*
X119252Y97441D01*
X119359Y96898D01*
X119655Y96457D01*
X119359Y96015D01*
X119252Y95472D01*
X119359Y94930D01*
X119655Y94488D01*
X119359Y94046D01*
X119252Y93504D01*
X119359Y92961D01*
X119655Y92520D01*
X119359Y92078D01*
X119252Y91535D01*
X119359Y90993D01*
X119655Y90551D01*
X119359Y90109D01*
X119252Y89567D01*
X119359Y89024D01*
X119655Y88583D01*
X119359Y88141D01*
X119252Y87598D01*
X119359Y87056D01*
X119655Y86614D01*
X119359Y86172D01*
X119252Y85630D01*
X119359Y85087D01*
X119655Y84646D01*
X119359Y84204D01*
X119252Y83661D01*
X119359Y83119D01*
X119667Y82659D01*
X120127Y82351D01*
X120669Y82244D01*
X122531D01*
X130673Y74102D01*
Y70866D01*
X130765Y70400D01*
X131029Y70006D01*
X134043Y66992D01*
Y59239D01*
X143517D01*
Y68713D01*
X138926D01*
X138893Y69213D01*
X140016Y69361D01*
X141168Y69839D01*
X142158Y70598D01*
X142917Y71587D01*
X143395Y72740D01*
X143557Y73976D01*
X143395Y75213D01*
X142917Y76365D01*
X142158Y77355D01*
X141168Y78114D01*
X140016Y78592D01*
X138779Y78754D01*
X137543Y78592D01*
X136391Y78114D01*
X136375Y78102D01*
X128780Y85697D01*
X128971Y86159D01*
X130660D01*
X131125Y86252D01*
X131319Y86381D01*
X136464D01*
X145853Y76992D01*
Y69239D01*
X150445D01*
X150477Y68739D01*
X149354Y68591D01*
X148202Y68114D01*
X147212Y67355D01*
X146453Y66365D01*
X145975Y65213D01*
X145813Y63976D01*
X145975Y62740D01*
X146453Y61587D01*
X147212Y60598D01*
X148202Y59839D01*
X149354Y59361D01*
X150591Y59198D01*
X151827Y59361D01*
X152980Y59839D01*
X153969Y60598D01*
X154728Y61587D01*
X155206Y62740D01*
X155208Y62759D01*
X159449D01*
X159915Y62852D01*
X160309Y63116D01*
X160573Y63511D01*
X160666Y63976D01*
Y76772D01*
X160573Y77237D01*
X160309Y77632D01*
X154975Y82967D01*
X155166Y83429D01*
X165517D01*
X165753Y83075D01*
X166473Y82594D01*
X167323Y82425D01*
X167613Y82483D01*
X167999Y82165D01*
Y81877D01*
X174521D01*
Y87414D01*
X174818Y87791D01*
X176646D01*
X176965Y87020D01*
X177724Y86031D01*
X178713Y85272D01*
X179866Y84794D01*
X180989Y84646D01*
X180956Y84146D01*
X176365D01*
Y78390D01*
X174521D01*
Y79540D01*
X167999D01*
Y78390D01*
X166025D01*
X163621Y80794D01*
X163469Y81559D01*
X162987Y82279D01*
X162267Y82760D01*
X161417Y82929D01*
X160567Y82760D01*
X159847Y82279D01*
X159366Y81559D01*
X159197Y80709D01*
X159366Y79859D01*
X159847Y79138D01*
X160567Y78657D01*
X161332Y78505D01*
X164210Y75627D01*
X164735Y75276D01*
X165354Y75153D01*
X167999D01*
Y74003D01*
X174521D01*
Y75153D01*
X176365D01*
Y74672D01*
X185705D01*
X185839Y74672D01*
X186205Y74348D01*
Y39703D01*
X169276Y22774D01*
X168844Y22996D01*
X168823Y23028D01*
X168941Y23622D01*
Y25775D01*
X170583D01*
Y31312D01*
X164062D01*
Y25775D01*
X165704D01*
Y24293D01*
X164152Y22740D01*
X151439D01*
X151068Y22988D01*
X150295Y23142D01*
X147909D01*
X147411Y23640D01*
X147602Y24102D01*
X150295D01*
X151068Y24256D01*
X151439Y24504D01*
X157028D01*
X157647Y24627D01*
X158172Y24978D01*
X158969Y25775D01*
X162709D01*
Y31312D01*
X156188D01*
Y27741D01*
X151439D01*
X151068Y27988D01*
X150295Y28142D01*
X146555D01*
X145905Y28013D01*
X145472Y28255D01*
X145466Y28750D01*
X145905Y29028D01*
X146555Y28898D01*
X147425D01*
Y31122D01*
Y33346D01*
X146555D01*
X145905Y33217D01*
X145405Y33532D01*
Y38570D01*
X146568D01*
Y44107D01*
X140047D01*
Y38570D01*
X142168D01*
Y24975D01*
X142291Y24356D01*
X142642Y23831D01*
X144671Y21802D01*
X144535Y21122D01*
X144689Y20349D01*
X145127Y19694D01*
X145782Y19256D01*
X146555Y19102D01*
X150295D01*
X151068Y19256D01*
X151439Y19504D01*
X164823D01*
X165417Y19622D01*
X165449Y19600D01*
X165671Y19169D01*
X147305Y803D01*
X131360D01*
X131036Y1168D01*
X131036Y1303D01*
Y10643D01*
X127603D01*
Y13266D01*
X128036Y13914D01*
X128073Y14102D01*
X129035D01*
X129808Y14256D01*
X130464Y14694D01*
X130902Y15349D01*
X131055Y16122D01*
X130902Y16895D01*
X130464Y17550D01*
X129808Y17988D01*
X129035Y18142D01*
X125295D01*
X124522Y17988D01*
X123867Y17550D01*
X123429Y16895D01*
X123275Y16122D01*
X123429Y15349D01*
X123776Y14829D01*
X123763Y14764D01*
X123932Y13914D01*
X124365Y13266D01*
Y10643D01*
X121562D01*
Y6052D01*
X121062Y6019D01*
X120914Y7142D01*
X120437Y8294D01*
X119678Y9284D01*
X118688Y10043D01*
X117918Y10362D01*
Y13267D01*
X119648Y14997D01*
X119999Y15522D01*
X120123Y16142D01*
Y19504D01*
X124152D01*
X124522Y19256D01*
X125295Y19102D01*
X129035D01*
X129808Y19256D01*
X130464Y19694D01*
X130902Y20349D01*
X131055Y21122D01*
X130902Y21895D01*
X130464Y22550D01*
X129808Y22988D01*
X129035Y23142D01*
X125295D01*
X124522Y22988D01*
X124152Y22740D01*
X119687D01*
X119648Y22798D01*
X119123Y23149D01*
X118504Y23272D01*
X113859D01*
X113036Y24096D01*
Y34633D01*
X114678D01*
Y40170D01*
X108157D01*
Y36021D01*
X107657Y35611D01*
X107283Y35685D01*
X106434Y35516D01*
X105713Y35035D01*
X105232Y34314D01*
X105063Y33465D01*
X105229Y32630D01*
X105242Y32541D01*
X104965Y32130D01*
X103162D01*
Y33772D01*
X97625D01*
Y27500D01*
X97425Y27083D01*
X97425Y26834D01*
Y24622D01*
X100394D01*
X103362D01*
Y26834D01*
X103362Y27083D01*
X103162Y27500D01*
Y28893D01*
X107283D01*
X107903Y29017D01*
X108428Y29367D01*
X109299Y30238D01*
X109746Y30095D01*
X109799Y30054D01*
Y23425D01*
X109922Y22806D01*
X110273Y22281D01*
X112045Y20509D01*
X112570Y20158D01*
X113189Y20035D01*
X116885D01*
Y16812D01*
X115155Y15081D01*
X114804Y14556D01*
X114681Y13937D01*
Y10362D01*
X113910Y10043D01*
X112921Y9284D01*
X112161Y8294D01*
X111684Y7142D01*
X111551Y6134D01*
X111047D01*
X110914Y7142D01*
X110437Y8294D01*
X109678Y9284D01*
X108688Y10043D01*
X107536Y10521D01*
X106299Y10683D01*
X105063Y10521D01*
X103910Y10043D01*
X102921Y9284D01*
X102161Y8294D01*
X101684Y7142D01*
X101652Y6900D01*
X101148D01*
X101109Y7194D01*
X100612Y8395D01*
X99820Y9427D01*
X98789Y10218D01*
X97588Y10715D01*
X97299Y10753D01*
Y5906D01*
X96299D01*
Y4905D01*
X91451D01*
X91489Y4617D01*
X91987Y3416D01*
X92778Y2384D01*
X93809Y1593D01*
X94510Y1303D01*
X94411Y803D01*
X39703D01*
X803Y39703D01*
Y73531D01*
X9658D01*
Y83005D01*
X5067D01*
X5034Y83505D01*
X6158Y83653D01*
X7310Y84130D01*
X8300Y84889D01*
X9059Y85879D01*
X9378Y86649D01*
X11995D01*
Y80401D01*
X17532D01*
Y86306D01*
Y92212D01*
Y93874D01*
X18032Y94026D01*
X18115Y93902D01*
X18835Y93421D01*
X19294Y93330D01*
X19669Y93028D01*
Y90567D01*
X22638D01*
X25606D01*
Y93028D01*
X25406D01*
Y98117D01*
Y100161D01*
X38167D01*
X43849Y94478D01*
Y80032D01*
X42507D01*
Y73511D01*
X48044D01*
Y80032D01*
X46283D01*
Y85147D01*
X46783Y85354D01*
X60163Y71974D01*
X60558Y71710D01*
X61024Y71618D01*
X99817D01*
X100161Y71336D01*
Y70115D01*
X73657D01*
X73421Y70468D01*
X72700Y70949D01*
X71850Y71118D01*
X71001Y70949D01*
X70280Y70468D01*
X69799Y69747D01*
X69630Y68898D01*
X69799Y68048D01*
X69841Y67984D01*
X69606Y67543D01*
X40477D01*
X35171Y72849D01*
X35363Y73311D01*
X36402D01*
Y75772D01*
X34433D01*
Y74241D01*
X33971Y74049D01*
X25406Y82614D01*
Y86106D01*
X25606D01*
Y88567D01*
X22638D01*
X19669D01*
Y86106D01*
X19869D01*
Y80401D01*
X24177D01*
X39113Y65465D01*
X39507Y65201D01*
X39973Y65109D01*
X103745D01*
X105357Y63497D01*
X105752Y63233D01*
X106218Y63140D01*
X110317D01*
X110783Y63233D01*
X111178Y63497D01*
X112673Y64992D01*
X112721Y64991D01*
X113173Y64835D01*
Y64453D01*
X115142D01*
Y67913D01*
X116142D01*
Y68913D01*
X119110D01*
Y70444D01*
X119572Y70636D01*
X121247Y68961D01*
Y64653D01*
X126784D01*
Y71174D01*
X122476D01*
X118424Y75227D01*
X118436Y75245D01*
X118544Y75787D01*
Y80118D01*
X118436Y80661D01*
X118343Y80800D01*
Y89567D01*
X118250Y90033D01*
X117987Y90428D01*
X114406Y94008D01*
Y103827D01*
X114493Y103914D01*
X118766D01*
X119083Y103527D01*
D02*
G37*
G36*
X186205Y137463D02*
Y120725D01*
X185717Y120646D01*
X185240Y121798D01*
X184481Y122788D01*
X183491Y123547D01*
X182339Y124024D01*
X181102Y124187D01*
X179866Y124024D01*
X178713Y123547D01*
X177724Y122788D01*
X176965Y121798D01*
X176646Y121028D01*
X174521D01*
Y122847D01*
X167999D01*
Y117310D01*
X169641D01*
Y115957D01*
X167999D01*
Y114807D01*
X166852D01*
X166204Y115241D01*
X165354Y115410D01*
X164505Y115241D01*
X163784Y114759D01*
X163303Y114039D01*
X163134Y113189D01*
X163303Y112339D01*
X163784Y111619D01*
X164505Y111137D01*
X165354Y110968D01*
X166204Y111137D01*
X166852Y111571D01*
X167999D01*
Y110421D01*
X174521D01*
Y115957D01*
X172878D01*
Y117310D01*
X174521D01*
Y117791D01*
X176646D01*
X176965Y117020D01*
X177724Y116031D01*
X178713Y115272D01*
X179866Y114794D01*
X180874Y114662D01*
Y114157D01*
X179866Y114024D01*
X178713Y113547D01*
X177724Y112788D01*
X176965Y111798D01*
X176487Y110646D01*
X176324Y109409D01*
X176487Y108173D01*
X176965Y107020D01*
X177724Y106031D01*
X178713Y105272D01*
X179866Y104794D01*
X180108Y104762D01*
Y104258D01*
X179814Y104219D01*
X178613Y103722D01*
X177581Y102931D01*
X176790Y101899D01*
X176292Y100698D01*
X176254Y100409D01*
X181102D01*
Y98409D01*
X176254D01*
X176292Y98121D01*
X176790Y96920D01*
X177581Y95888D01*
X178613Y95097D01*
X179814Y94599D01*
X180108Y94561D01*
Y94056D01*
X179866Y94024D01*
X178713Y93547D01*
X177724Y92788D01*
X176965Y91798D01*
X176646Y91028D01*
X174521D01*
Y93320D01*
X170213D01*
X168537Y94995D01*
X168729Y95457D01*
X170260D01*
Y97425D01*
X167799D01*
Y96386D01*
X167337Y96195D01*
X151648Y111884D01*
X151253Y112148D01*
X150787Y112241D01*
X118544D01*
Y113189D01*
X118436Y113732D01*
X118129Y114191D01*
X118106Y114417D01*
X120939Y117249D01*
X121203Y117644D01*
X121296Y118110D01*
Y118272D01*
X121649Y118508D01*
X122130Y119229D01*
X122299Y120079D01*
X122130Y120928D01*
X121649Y121649D01*
X120928Y122130D01*
X120079Y122299D01*
X119229Y122130D01*
X118508Y121649D01*
X118360Y121427D01*
X117860D01*
X117712Y121649D01*
X116991Y122130D01*
X116142Y122299D01*
X115292Y122130D01*
X114571Y121649D01*
X114423Y121427D01*
X113923D01*
X113775Y121649D01*
X113055Y122130D01*
X112205Y122299D01*
X111355Y122130D01*
X110635Y121649D01*
X110153Y120929D01*
X109984Y120079D01*
X110110Y119446D01*
X109786Y118946D01*
X108187D01*
X107721Y118854D01*
X107326Y118590D01*
X107107Y118371D01*
X106607Y118578D01*
Y123831D01*
X100086D01*
Y118295D01*
X102129D01*
Y114915D01*
X101629Y114557D01*
X101378Y114607D01*
X100835Y114499D01*
X100394Y114204D01*
X99952Y114499D01*
X99410Y114607D01*
X98867Y114499D01*
X98598Y114320D01*
X98588Y114336D01*
X98441Y114434D01*
Y114215D01*
X98407Y114192D01*
X98099Y113732D01*
X97991Y113189D01*
Y111024D01*
X96890D01*
Y113189D01*
X96782Y113732D01*
X96690Y113871D01*
Y114173D01*
X96597Y114639D01*
X96597Y114639D01*
X96333Y115034D01*
X94226Y117140D01*
X94418Y117602D01*
X95457D01*
Y120063D01*
X93488D01*
Y118532D01*
X93026Y118341D01*
X91351Y120016D01*
Y124324D01*
X91351D01*
Y124692D01*
X91351D01*
Y131213D01*
X85814D01*
Y124692D01*
X85814D01*
Y124324D01*
X85814D01*
Y117802D01*
X90122D01*
X94175Y113750D01*
X94163Y113732D01*
X94055Y113189D01*
Y108858D01*
X94163Y108316D01*
X94255Y108177D01*
Y107788D01*
X93000Y106532D01*
X92611D01*
X92472Y106625D01*
X91929Y106733D01*
X87598D01*
X87056Y106625D01*
X86596Y106317D01*
X86289Y105858D01*
X86181Y105315D01*
X86289Y104772D01*
X86584Y104331D01*
X86289Y103889D01*
X86181Y103347D01*
X86289Y102804D01*
X86584Y102362D01*
X86289Y101920D01*
X86181Y101378D01*
X86289Y100835D01*
X86584Y100394D01*
X86289Y99952D01*
X86181Y99410D01*
X86231Y99158D01*
X85873Y98658D01*
X84461D01*
X82690Y100429D01*
Y104934D01*
X80548D01*
Y108661D01*
X80455Y109127D01*
X80191Y109522D01*
X79601Y110113D01*
X79206Y110376D01*
X78740Y110469D01*
X73635D01*
Y112513D01*
X68098D01*
Y105991D01*
X73635D01*
Y108035D01*
X78114D01*
Y104934D01*
X75972D01*
Y99200D01*
X80476D01*
X81364Y98312D01*
X81173Y97850D01*
X80331D01*
Y94784D01*
X78331D01*
Y97850D01*
X75772D01*
Y96258D01*
X75458Y96001D01*
X73635D01*
Y97650D01*
X66917D01*
Y95705D01*
X66253D01*
Y97257D01*
X59732D01*
Y91720D01*
X66253D01*
Y93271D01*
X66917D01*
Y91917D01*
X73635D01*
Y93566D01*
X74361D01*
Y92222D01*
X74454Y91756D01*
X74717Y91361D01*
X75417Y90662D01*
X75811Y90398D01*
X76277Y90306D01*
X82589D01*
X83055Y90398D01*
X83450Y90662D01*
X85566Y92778D01*
X86148Y92654D01*
X86194Y92535D01*
X86573D01*
X86596Y92501D01*
X87056Y92194D01*
X87598Y92086D01*
X89764D01*
Y90985D01*
X87598D01*
X87056Y90877D01*
X86596Y90570D01*
X86579Y90544D01*
X86535Y90535D01*
X86354D01*
X86379Y90497D01*
X85999Y90243D01*
X83785Y88030D01*
X83627Y87793D01*
X83185Y87614D01*
X83185Y87614D01*
X83185Y87614D01*
X80724D01*
Y84646D01*
Y81677D01*
X82118D01*
X82213Y81596D01*
X82291Y81059D01*
X80772Y79540D01*
X76464D01*
Y74052D01*
X73518D01*
X73251Y74552D01*
X73508Y74938D01*
X73677Y75787D01*
X73508Y76637D01*
X73027Y77358D01*
X72307Y77839D01*
X71457Y78008D01*
X71040Y77925D01*
X56902Y92063D01*
Y95288D01*
X53371D01*
X53180Y95750D01*
X55782Y98352D01*
X56046Y98747D01*
X56138Y99213D01*
Y99594D01*
X56902D01*
Y105524D01*
X53362D01*
Y105724D01*
X52181D01*
Y102559D01*
Y99394D01*
X52674D01*
X52881Y98894D01*
X50886Y96899D01*
X45765D01*
X45300Y96806D01*
X45098Y96672D01*
X39531Y102239D01*
X39137Y102502D01*
X38671Y102595D01*
X25406D01*
Y105665D01*
X42046D01*
X45460Y102251D01*
Y99594D01*
X49000D01*
Y99394D01*
X50181D01*
Y102559D01*
Y105724D01*
X49000D01*
Y105524D01*
X46764D01*
X43861Y108428D01*
X43336Y108779D01*
X42717Y108902D01*
X27967D01*
X27776Y109364D01*
X37198Y118787D01*
X40170D01*
Y125308D01*
X34633D01*
Y120799D01*
X25868Y112034D01*
X25406Y112226D01*
Y116450D01*
X19869D01*
Y115561D01*
X19685Y115410D01*
X18835Y115241D01*
X18115Y114759D01*
X18032Y114636D01*
X17532Y114787D01*
Y116450D01*
X11995D01*
Y109886D01*
X9378D01*
X9059Y110657D01*
X8300Y111646D01*
X7310Y112406D01*
X6158Y112883D01*
X5916Y112915D01*
Y113419D01*
X6210Y113458D01*
X7411Y113955D01*
X8442Y114747D01*
X9234Y115778D01*
X9731Y116979D01*
X9769Y117268D01*
X4921D01*
Y118268D01*
X3921D01*
Y123116D01*
X3632Y123078D01*
X2431Y122580D01*
X1400Y121789D01*
X1276Y121627D01*
X803Y121788D01*
Y137463D01*
X39703Y176363D01*
X47897D01*
X47976Y175875D01*
X46824Y175398D01*
X45834Y174638D01*
X45075Y173649D01*
X44598Y172496D01*
X44435Y171260D01*
X44598Y170023D01*
X45075Y168871D01*
X45834Y167881D01*
X46824Y167122D01*
X47976Y166645D01*
X49213Y166482D01*
X50449Y166645D01*
X51601Y167122D01*
X52591Y167881D01*
X53350Y168871D01*
X53828Y170023D01*
X53976Y171147D01*
X54476Y171114D01*
Y166523D01*
X63950D01*
Y175863D01*
X63950Y175997D01*
X64274Y176363D01*
X79647D01*
X79746Y175863D01*
X79046Y175572D01*
X78014Y174781D01*
X77223Y173750D01*
X76726Y172549D01*
X76688Y172260D01*
X81535D01*
Y171260D01*
X82535D01*
Y166412D01*
X82824Y166450D01*
X84025Y166947D01*
X85057Y167739D01*
X85848Y168770D01*
X86345Y169971D01*
X86384Y170265D01*
X86888D01*
X86920Y170023D01*
X87398Y168871D01*
X88157Y167881D01*
X89147Y167122D01*
X90299Y166645D01*
X91535Y166482D01*
X92772Y166645D01*
X93542Y166964D01*
X105701Y154805D01*
X105510Y154343D01*
X100086D01*
Y154343D01*
X99717D01*
Y154343D01*
X93196D01*
Y148806D01*
X99717D01*
Y148806D01*
X100086D01*
Y148806D01*
X106607D01*
Y153246D01*
X107069Y153437D01*
X130942Y129564D01*
X131467Y129213D01*
X132087Y129090D01*
X132949D01*
X133009Y129051D01*
X133858Y128882D01*
X134708Y129051D01*
X134767Y129090D01*
X136731D01*
X139013Y126808D01*
X139538Y126458D01*
X140157Y126334D01*
X167999D01*
Y125184D01*
X174521D01*
Y125842D01*
X175021Y126109D01*
X175331Y125901D01*
X176181Y125732D01*
X177031Y125901D01*
X177751Y126383D01*
X178233Y127103D01*
X178402Y127953D01*
X178233Y128803D01*
X177751Y129523D01*
X177031Y130004D01*
X176181Y130173D01*
X175331Y130004D01*
X175021Y129797D01*
X174521Y130064D01*
Y130721D01*
X167999D01*
Y129571D01*
X140828D01*
X138546Y131853D01*
X138021Y132204D01*
X137402Y132327D01*
X135659D01*
X135429Y132673D01*
X134708Y133154D01*
X133858Y133323D01*
X133009Y133154D01*
X132362Y132722D01*
X95831Y169253D01*
X96150Y170023D01*
X96283Y171032D01*
X96788D01*
X96920Y170023D01*
X97398Y168871D01*
X98157Y167881D01*
X99146Y167122D01*
X100299Y166645D01*
X101535Y166482D01*
X102772Y166645D01*
X103924Y167122D01*
X104914Y167881D01*
X105673Y168871D01*
X106150Y170023D01*
X106298Y171147D01*
X106798Y171114D01*
Y166523D01*
X116272D01*
Y175863D01*
X116272Y175997D01*
X116597Y176363D01*
X147305D01*
X186205Y137463D01*
D02*
G37*
%LPC*%
G36*
X44799Y38402D02*
X42339D01*
Y36433D01*
X44799D01*
Y38402D01*
D02*
G37*
G36*
X166323Y35417D02*
X163862D01*
Y33449D01*
X166323D01*
Y35417D01*
D02*
G37*
G36*
X40339Y38402D02*
X37878D01*
Y36433D01*
X40339D01*
Y38402D01*
D02*
G37*
G36*
X170783Y35417D02*
X168323D01*
Y33449D01*
X170783D01*
Y35417D01*
D02*
G37*
G36*
X40339Y34433D02*
X37878D01*
Y32465D01*
X40339D01*
Y34433D01*
D02*
G37*
G36*
X150295Y33346D02*
X149425D01*
Y32122D01*
X152250D01*
X151868Y32695D01*
X151146Y33177D01*
X150295Y33346D01*
D02*
G37*
G36*
X44799Y34433D02*
X42339D01*
Y32465D01*
X44799D01*
Y34433D01*
D02*
G37*
G36*
X52673D02*
X50213D01*
Y32465D01*
X52673D01*
Y34433D01*
D02*
G37*
G36*
X48213D02*
X45752D01*
Y32465D01*
X48213D01*
Y34433D01*
D02*
G37*
G36*
X126969Y52417D02*
X126119Y52248D01*
X125398Y51767D01*
X124917Y51047D01*
X124748Y50197D01*
X124917Y49347D01*
X125350Y48699D01*
Y48044D01*
X123708D01*
Y42507D01*
X130229D01*
Y48044D01*
X128587D01*
Y48699D01*
X129020Y49347D01*
X129189Y50197D01*
X129020Y51047D01*
X128539Y51767D01*
X127818Y52248D01*
X126969Y52417D01*
D02*
G37*
G36*
X163386Y44543D02*
X162536Y44374D01*
X161816Y43893D01*
X161334Y43173D01*
X161182Y42408D01*
X158304Y39530D01*
X158074Y39186D01*
X156188D01*
Y33649D01*
X162709D01*
Y39186D01*
X162709Y39186D01*
X162709D01*
X162939Y39587D01*
X163471Y40119D01*
X164236Y40271D01*
X164956Y40753D01*
X165437Y41473D01*
X165606Y42323D01*
X165437Y43173D01*
X164956Y43893D01*
X164236Y44374D01*
X163386Y44543D01*
D02*
G37*
G36*
X122158Y48044D02*
X115637D01*
Y46894D01*
X114678D01*
Y48044D01*
X108157D01*
Y42507D01*
X114678D01*
Y43657D01*
X115637D01*
Y42507D01*
X122158D01*
Y48044D01*
D02*
G37*
G36*
X84646Y64228D02*
X83796Y64060D01*
X83075Y63578D01*
X82594Y62858D01*
X82425Y62008D01*
X82594Y61158D01*
X83075Y60438D01*
X83796Y59956D01*
X84646Y59787D01*
X85496Y59956D01*
X86216Y60438D01*
X86697Y61158D01*
X86866Y62008D01*
X86697Y62858D01*
X86216Y63578D01*
X85496Y64060D01*
X84646Y64228D01*
D02*
G37*
G36*
X154048Y51981D02*
X147527D01*
Y50831D01*
X146568D01*
Y51981D01*
X140047D01*
Y46444D01*
X146568D01*
Y47594D01*
X147527D01*
Y46444D01*
X154048D01*
Y51981D01*
D02*
G37*
G36*
X52673Y38402D02*
X50213D01*
Y36433D01*
X52673D01*
Y38402D01*
D02*
G37*
G36*
X48213D02*
X45752D01*
Y36433D01*
X48213D01*
Y38402D01*
D02*
G37*
G36*
X166323Y39386D02*
X163862D01*
Y37417D01*
X166323D01*
Y39386D01*
D02*
G37*
G36*
X157480Y48480D02*
X156631Y48311D01*
X155910Y47830D01*
X155429Y47110D01*
X155277Y46345D01*
X153039Y44107D01*
X147527D01*
Y38570D01*
X154048D01*
Y40539D01*
X157565Y44056D01*
X158330Y44208D01*
X159051Y44690D01*
X159532Y45410D01*
X159701Y46260D01*
X159532Y47110D01*
X159051Y47830D01*
X158330Y48311D01*
X157480Y48480D01*
D02*
G37*
G36*
X170783Y39386D02*
X168323D01*
Y37417D01*
X170783D01*
Y39386D01*
D02*
G37*
G36*
X95488Y33972D02*
X93520D01*
Y31512D01*
X95488D01*
Y33972D01*
D02*
G37*
G36*
X44107Y22946D02*
X38570D01*
Y16424D01*
X39720D01*
Y15072D01*
X38570D01*
Y8550D01*
X44107D01*
Y15072D01*
X42957D01*
Y16424D01*
X44107D01*
Y22946D01*
D02*
G37*
G36*
X52181Y10811D02*
X50213D01*
Y8350D01*
X52181D01*
Y10811D01*
D02*
G37*
G36*
X99394Y14748D02*
X97425D01*
Y12287D01*
X99394D01*
Y14748D01*
D02*
G37*
G36*
X48213Y15272D02*
X46244D01*
Y12811D01*
X48213D01*
Y15272D01*
D02*
G37*
G36*
X103362Y14748D02*
X101394D01*
Y12287D01*
X103362D01*
Y14748D01*
D02*
G37*
G36*
X48213Y10811D02*
X46244D01*
Y8350D01*
X48213D01*
Y10811D01*
D02*
G37*
G36*
X88008Y3724D02*
X83284D01*
Y1756D01*
X88008D01*
Y3724D01*
D02*
G37*
G36*
X81283D02*
X76559D01*
Y1756D01*
X81283D01*
Y3724D01*
D02*
G37*
G36*
Y7693D02*
X76559D01*
Y5724D01*
X81283D01*
Y7693D01*
D02*
G37*
G36*
X95299Y10753D02*
X95010Y10715D01*
X93809Y10218D01*
X92778Y9427D01*
X91987Y8395D01*
X91489Y7194D01*
X91451Y6905D01*
X95299D01*
Y10753D01*
D02*
G37*
G36*
X88008Y7693D02*
X83284D01*
Y5724D01*
X88008D01*
Y7693D01*
D02*
G37*
G36*
X52181Y15272D02*
X50213D01*
Y12811D01*
X52181D01*
Y15272D01*
D02*
G37*
G36*
X152250Y30122D02*
X149425D01*
Y28898D01*
X150295D01*
X151146Y29068D01*
X151868Y29550D01*
X152250Y30122D01*
D02*
G37*
G36*
X95488Y29512D02*
X92520D01*
X89551D01*
Y27300D01*
X89551Y27051D01*
X89751Y26634D01*
Y24453D01*
X87808D01*
Y25603D01*
X76759D01*
Y20066D01*
X87808D01*
Y21216D01*
X89751D01*
Y20361D01*
X90039D01*
X90357Y19975D01*
X90299Y19685D01*
X90357Y19395D01*
X90039Y19009D01*
X89751D01*
Y12487D01*
X95288D01*
Y19009D01*
X95000D01*
X94683Y19395D01*
X94740Y19685D01*
X94683Y19975D01*
X95000Y20361D01*
X95288D01*
Y26634D01*
X95488Y27051D01*
X95488Y27300D01*
Y29512D01*
D02*
G37*
G36*
X130229Y40170D02*
X123708D01*
Y34633D01*
X125547D01*
Y33142D01*
X125295D01*
X124522Y32988D01*
X123867Y32550D01*
X123429Y31895D01*
X123275Y31122D01*
X123429Y30349D01*
X123867Y29694D01*
X124522Y29256D01*
X125295Y29102D01*
X129035D01*
X129808Y29256D01*
X130464Y29694D01*
X130902Y30349D01*
X131055Y31122D01*
X130902Y31895D01*
X130464Y32550D01*
X129808Y32988D01*
X129035Y33142D01*
X128784D01*
Y34633D01*
X130229D01*
Y40170D01*
D02*
G37*
G36*
X91520Y33972D02*
X89551D01*
Y31512D01*
X91520D01*
Y33972D01*
D02*
G37*
G36*
X52473Y30328D02*
X45952D01*
Y29178D01*
X44599D01*
Y30328D01*
X38078D01*
Y29670D01*
X37578Y29403D01*
X37267Y29611D01*
X36417Y29780D01*
X35568Y29611D01*
X34847Y29129D01*
X34366Y28409D01*
X34197Y27559D01*
X34366Y26709D01*
X34847Y25989D01*
X35568Y25508D01*
X36417Y25338D01*
X37267Y25508D01*
X37578Y25715D01*
X38078Y25448D01*
Y24791D01*
X44599D01*
Y25941D01*
X45952D01*
Y24791D01*
X47594D01*
Y22946D01*
X46444D01*
Y16424D01*
X51981D01*
Y18067D01*
X52873D01*
X53924Y17015D01*
Y6483D01*
X64973D01*
Y12161D01*
X76759D01*
Y11011D01*
X87808D01*
Y16548D01*
X76759D01*
Y15398D01*
X64973D01*
Y21076D01*
X54319D01*
X54163Y21180D01*
X53543Y21304D01*
X51981D01*
Y22946D01*
X50831D01*
Y24791D01*
X52473D01*
Y30328D01*
D02*
G37*
G36*
X122158Y40170D02*
X115637D01*
Y34633D01*
X115716D01*
X116023Y34133D01*
X115890Y33465D01*
X116059Y32615D01*
X116492Y31967D01*
Y29528D01*
X116615Y28908D01*
X116966Y28383D01*
X120371Y24978D01*
X120896Y24627D01*
X121516Y24504D01*
X124152D01*
X124522Y24256D01*
X125295Y24102D01*
X129035D01*
X129808Y24256D01*
X130464Y24694D01*
X130902Y25349D01*
X131055Y26122D01*
X130902Y26895D01*
X130464Y27550D01*
X129808Y27988D01*
X129035Y28142D01*
X125295D01*
X124522Y27988D01*
X124152Y27741D01*
X122186D01*
X119729Y30198D01*
Y31967D01*
X120162Y32615D01*
X120331Y33465D01*
X120198Y34133D01*
X120504Y34633D01*
X122158D01*
Y40170D01*
D02*
G37*
G36*
X103362Y19209D02*
X101394D01*
Y16748D01*
X103362D01*
Y19209D01*
D02*
G37*
G36*
X99394D02*
X97425D01*
Y16748D01*
X99394D01*
Y19209D01*
D02*
G37*
G36*
X153917Y18343D02*
X153068Y18174D01*
X152419Y17740D01*
X151439D01*
X151068Y17988D01*
X150295Y18142D01*
X146555D01*
X145782Y17988D01*
X145127Y17550D01*
X144689Y16895D01*
X144535Y16122D01*
X144689Y15349D01*
X145127Y14694D01*
X145782Y14256D01*
X146555Y14102D01*
X150295D01*
X151068Y14256D01*
X151439Y14504D01*
X152419D01*
X153068Y14071D01*
X153917Y13901D01*
X154767Y14071D01*
X155488Y14552D01*
X155969Y15272D01*
X156138Y16122D01*
X155969Y16972D01*
X155488Y17692D01*
X154767Y18174D01*
X153917Y18343D01*
D02*
G37*
G36*
X103362Y22622D02*
X101394D01*
Y20161D01*
X103362D01*
Y22622D01*
D02*
G37*
G36*
X99394D02*
X97425D01*
Y20161D01*
X99394D01*
Y22622D01*
D02*
G37*
G36*
X40370Y75772D02*
X38402D01*
Y73311D01*
X40370D01*
Y75772D01*
D02*
G37*
G36*
X119110Y66913D02*
X117142D01*
Y64453D01*
X119110D01*
Y66913D01*
D02*
G37*
G36*
X36402Y80232D02*
X34433D01*
Y77772D01*
X36402D01*
Y80232D01*
D02*
G37*
G36*
X40370D02*
X38402D01*
Y77772D01*
X40370D01*
Y80232D01*
D02*
G37*
G36*
X106807Y131905D02*
X104346D01*
Y129937D01*
X106807D01*
Y131905D01*
D02*
G37*
G36*
X95457Y131413D02*
X93488D01*
Y128953D01*
X95457D01*
Y131413D01*
D02*
G37*
G36*
X99917Y146669D02*
X99669Y146669D01*
X97457D01*
Y143701D01*
Y140732D01*
X99669D01*
X99917Y140732D01*
X100335Y140932D01*
X103826D01*
X105080Y139679D01*
X105232Y138914D01*
X105713Y138194D01*
X106434Y137712D01*
X107283Y137543D01*
X108133Y137712D01*
X108854Y138194D01*
X109335Y138914D01*
X109504Y139764D01*
X109335Y140614D01*
X108854Y141334D01*
X108133Y141815D01*
X107369Y141967D01*
X106607Y142729D01*
Y146469D01*
X100335D01*
X99917Y146669D01*
D02*
G37*
G36*
X155626Y142642D02*
X151689D01*
Y138705D01*
X155626D01*
Y142642D01*
D02*
G37*
G36*
X149689D02*
X145752D01*
Y138705D01*
X149689D01*
Y142642D01*
D02*
G37*
G36*
X102346Y131905D02*
X99886D01*
Y131508D01*
X99425Y131413D01*
X99386Y131413D01*
X97457D01*
Y127953D01*
X96457D01*
Y126953D01*
X93488D01*
Y124492D01*
Y122063D01*
X96457D01*
X99425D01*
Y124492D01*
Y125873D01*
X99886Y125969D01*
X99925Y125969D01*
X102346D01*
Y128937D01*
Y131905D01*
D02*
G37*
G36*
X5921Y123116D02*
Y119268D01*
X9769D01*
X9731Y119556D01*
X9234Y120757D01*
X8442Y121789D01*
X7411Y122580D01*
X6210Y123078D01*
X5921Y123116D01*
D02*
G37*
G36*
X44276Y125508D02*
X42307D01*
Y123047D01*
X44276D01*
Y125508D01*
D02*
G37*
G36*
X106807Y127937D02*
X104346D01*
Y125969D01*
X106807D01*
Y127937D01*
D02*
G37*
G36*
X48244Y125508D02*
X46276D01*
Y123047D01*
X48244D01*
Y125508D01*
D02*
G37*
G36*
X138272Y142799D02*
X134335D01*
Y138862D01*
X138272D01*
Y142799D01*
D02*
G37*
G36*
X151689Y158490D02*
Y154642D01*
X155537D01*
X155499Y154930D01*
X155001Y156131D01*
X154210Y157163D01*
X153179Y157954D01*
X151978Y158452D01*
X151689Y158490D01*
D02*
G37*
G36*
X149689Y158490D02*
X149400Y158452D01*
X148199Y157954D01*
X147168Y157163D01*
X146377Y156131D01*
X145879Y154930D01*
X145841Y154642D01*
X149689D01*
Y158490D01*
D02*
G37*
G36*
X138272Y158647D02*
X137983Y158609D01*
X136782Y158112D01*
X135750Y157320D01*
X134959Y156289D01*
X134462Y155088D01*
X134424Y154799D01*
X138272D01*
Y158647D01*
D02*
G37*
G36*
X80535Y170260D02*
X76688D01*
X76726Y169971D01*
X77223Y168770D01*
X78014Y167739D01*
X79046Y166947D01*
X80247Y166450D01*
X80535Y166412D01*
Y170260D01*
D02*
G37*
G36*
X140272Y158647D02*
Y154799D01*
X144120D01*
X144082Y155088D01*
X143584Y156289D01*
X142793Y157320D01*
X141762Y158112D01*
X140560Y158609D01*
X140272Y158647D01*
D02*
G37*
G36*
X95457Y142701D02*
X92996D01*
Y140732D01*
X95457D01*
Y142701D01*
D02*
G37*
G36*
X144209Y142799D02*
X140272D01*
Y138862D01*
X144209D01*
Y142799D01*
D02*
G37*
G36*
X150689Y153642D02*
D01*
Y152642D01*
X145841D01*
X145879Y152353D01*
X146377Y151152D01*
X147168Y150121D01*
X148199Y149329D01*
X148804Y149079D01*
X148705Y148579D01*
X145752D01*
Y144642D01*
X150689D01*
X155626D01*
Y148579D01*
X152673D01*
X152574Y149079D01*
X153179Y149329D01*
X154210Y150121D01*
X155001Y151152D01*
X155499Y152353D01*
X155537Y152642D01*
X150689D01*
Y153642D01*
D02*
G37*
G36*
X144120Y152799D02*
X139272D01*
X134424D01*
X134462Y152510D01*
X134959Y151309D01*
X135750Y150278D01*
X136782Y149487D01*
X137387Y149236D01*
X137287Y148736D01*
X134335D01*
Y144799D01*
X139272D01*
X144209D01*
Y148736D01*
X141256D01*
X141157Y149236D01*
X141762Y149487D01*
X142793Y150278D01*
X143584Y151309D01*
X144082Y152510D01*
X144120Y152799D01*
D02*
G37*
G36*
X95457Y146669D02*
X92996D01*
Y144701D01*
X95457D01*
Y146669D01*
D02*
G37*
G36*
X48244Y121047D02*
X46276D01*
Y118587D01*
X48244D01*
Y121047D01*
D02*
G37*
G36*
X174721Y97425D02*
X172260D01*
Y95457D01*
X174721D01*
Y97425D01*
D02*
G37*
G36*
X78724Y87614D02*
X76264D01*
Y85646D01*
X78724D01*
Y87614D01*
D02*
G37*
G36*
X65961Y108252D02*
X62992D01*
X60024D01*
Y105831D01*
X60024Y105791D01*
X59929Y105331D01*
X59531D01*
Y103362D01*
X62992D01*
Y102362D01*
X63992D01*
Y99394D01*
X66216D01*
X66453Y99394D01*
X66716Y99003D01*
Y99000D01*
X69276D01*
Y102067D01*
Y105134D01*
X66871Y105134D01*
X66453Y105331D01*
X66298Y105331D01*
X66056D01*
X65961Y105791D01*
X65961Y105831D01*
Y108252D01*
D02*
G37*
G36*
X61992Y101362D02*
X59531D01*
Y99394D01*
X61992D01*
Y101362D01*
D02*
G37*
G36*
X73835Y101067D02*
X71276D01*
Y99000D01*
X73835D01*
Y101067D01*
D02*
G37*
G36*
X78724Y83646D02*
X76264D01*
Y81677D01*
X78724D01*
Y83646D01*
D02*
G37*
G36*
X170260Y101394D02*
X167799D01*
Y99425D01*
X170260D01*
Y101394D01*
D02*
G37*
G36*
X61992Y112713D02*
X60024D01*
Y110252D01*
X61992D01*
Y112713D01*
D02*
G37*
G36*
X174721Y108283D02*
X172260D01*
Y106315D01*
X174721D01*
Y108283D01*
D02*
G37*
G36*
X65961Y112713D02*
X63992D01*
Y110252D01*
X65961D01*
Y112713D01*
D02*
G37*
G36*
X44276Y121047D02*
X42307D01*
Y118587D01*
X44276D01*
Y121047D01*
D02*
G37*
G36*
X99425Y120063D02*
X97457D01*
Y117602D01*
X99425D01*
Y120063D01*
D02*
G37*
G36*
X170260Y104315D02*
X167799D01*
Y102347D01*
X170260D01*
Y104315D01*
D02*
G37*
G36*
X174721Y101394D02*
X172260D01*
Y99425D01*
X174721D01*
Y101394D01*
D02*
G37*
G36*
Y104315D02*
X172260D01*
Y102347D01*
X174721D01*
Y104315D01*
D02*
G37*
G36*
X170260Y108283D02*
X167799D01*
Y106315D01*
X170260D01*
Y108283D01*
D02*
G37*
G36*
X71276Y105134D02*
Y103067D01*
X73835D01*
Y105134D01*
X71276D01*
D02*
G37*
%LPD*%
D10*
X150787Y49213D02*
D03*
Y41339D02*
D03*
X143307D02*
D03*
Y49213D02*
D03*
X103347Y143701D02*
D03*
Y151575D02*
D03*
X96457D02*
D03*
Y143701D02*
D03*
X62992Y102362D02*
D03*
Y94488D02*
D03*
X79724Y84646D02*
D03*
Y76772D02*
D03*
X103347Y128937D02*
D03*
Y121063D02*
D03*
X49213Y35433D02*
D03*
Y27559D02*
D03*
X41339Y35433D02*
D03*
Y27559D02*
D03*
X159449Y28543D02*
D03*
Y36417D02*
D03*
X111417Y45276D02*
D03*
Y37402D02*
D03*
X118898D02*
D03*
Y45276D02*
D03*
X126969Y37402D02*
D03*
Y45276D02*
D03*
X167323Y28543D02*
D03*
Y36417D02*
D03*
X171260Y76772D02*
D03*
Y84646D02*
D03*
Y98425D02*
D03*
Y90551D02*
D03*
Y127953D02*
D03*
Y120079D02*
D03*
Y105315D02*
D03*
Y113189D02*
D03*
D11*
X89764Y105315D02*
D03*
Y103347D02*
D03*
Y101378D02*
D03*
Y99410D02*
D03*
Y97441D02*
D03*
Y95472D02*
D03*
Y93504D02*
D03*
Y91535D02*
D03*
Y89567D02*
D03*
Y87598D02*
D03*
Y85630D02*
D03*
Y83661D02*
D03*
X122835D02*
D03*
Y85630D02*
D03*
Y87598D02*
D03*
Y89567D02*
D03*
Y91535D02*
D03*
Y93504D02*
D03*
Y95472D02*
D03*
Y97441D02*
D03*
Y99410D02*
D03*
Y101378D02*
D03*
Y103347D02*
D03*
Y105315D02*
D03*
D12*
X95472Y77953D02*
D03*
X97441D02*
D03*
X99410D02*
D03*
X101378D02*
D03*
X103347D02*
D03*
X105315D02*
D03*
X107283D02*
D03*
X109252D02*
D03*
X111221D02*
D03*
X113189D02*
D03*
X115157D02*
D03*
X117126D02*
D03*
Y111024D02*
D03*
X115157D02*
D03*
X113189D02*
D03*
X111221D02*
D03*
X109252D02*
D03*
X107283D02*
D03*
X105315D02*
D03*
X103347D02*
D03*
X101378D02*
D03*
X99410D02*
D03*
X97441D02*
D03*
X95472D02*
D03*
D13*
X59449Y13780D02*
D03*
D14*
X82284Y22835D02*
D03*
Y13780D02*
D03*
Y4724D02*
D03*
D15*
X70276Y94784D02*
D03*
Y102067D02*
D03*
X79331D02*
D03*
Y94784D02*
D03*
D16*
X70866Y109252D02*
D03*
X62992D02*
D03*
X22638Y107283D02*
D03*
X14764D02*
D03*
Y83661D02*
D03*
X22638D02*
D03*
Y89567D02*
D03*
X14764D02*
D03*
X22638Y95472D02*
D03*
X14764D02*
D03*
X22638Y101378D02*
D03*
X14764D02*
D03*
Y113189D02*
D03*
X22638D02*
D03*
X45276Y122047D02*
D03*
X37402D02*
D03*
Y76772D02*
D03*
X45276D02*
D03*
X116142Y67913D02*
D03*
X124016D02*
D03*
X96457Y121063D02*
D03*
X88583D02*
D03*
X96457Y127953D02*
D03*
X88583D02*
D03*
X92520Y30512D02*
D03*
X100394D02*
D03*
Y23622D02*
D03*
X92520D02*
D03*
X100394Y15748D02*
D03*
X92520D02*
D03*
X49213Y19685D02*
D03*
X41339D02*
D03*
Y11811D02*
D03*
X49213D02*
D03*
D17*
X54921Y102559D02*
D03*
X51181D02*
D03*
X47441D02*
D03*
Y92323D02*
D03*
X51181D02*
D03*
X54921D02*
D03*
D18*
X148425Y16122D02*
D03*
Y21122D02*
D03*
Y26122D02*
D03*
Y31122D02*
D03*
X127165D02*
D03*
Y26122D02*
D03*
Y21122D02*
D03*
Y16122D02*
D03*
D19*
X155170Y119737D02*
X164289Y110617D01*
X148935Y125972D02*
X155170Y119737D01*
Y124358D01*
X75394Y98721D02*
X79331Y94784D01*
X73622Y98721D02*
X75394D01*
X70276Y102067D02*
X73622Y98721D01*
X69980Y102362D02*
X70276Y102067D01*
X62992Y102362D02*
X69980D01*
X133661Y105315D02*
X133858Y105512D01*
X122835Y105315D02*
X133661D01*
X123879Y136115D02*
X134022Y125972D01*
X118938Y136115D02*
X123879D01*
X134022Y125972D02*
X148935D01*
X116942Y114973D02*
X120079Y118110D01*
Y120079D01*
X115550Y114973D02*
X116942D01*
X115342Y114765D02*
X115550Y114973D01*
X115342Y111208D02*
Y114765D01*
X115157Y111024D02*
X115342Y111208D01*
X150591Y63976D02*
X159449D01*
Y76772D01*
X153162Y83058D02*
X159449Y76772D01*
X145012Y83058D02*
X153162D01*
X138884Y89186D02*
X145012Y83058D01*
X130224Y89186D02*
X138884D01*
X130002Y88964D02*
X130224Y89186D01*
X127872Y88964D02*
X130002D01*
X127269Y89567D02*
X127872Y88964D01*
X122835Y89567D02*
X127269D01*
X130882Y87598D02*
X136969D01*
X130660Y87376D02*
X130882Y87598D01*
X127214Y87376D02*
X130660D01*
X126992Y87598D02*
X127214Y87376D01*
X122835Y87598D02*
X126992D01*
X145669Y84646D02*
X167323D01*
X136969Y87598D02*
X150591Y73976D01*
X127126Y85630D02*
X138779Y73976D01*
X122835Y85630D02*
X127126D01*
X131890Y70866D02*
X138779Y63976D01*
X131890Y70866D02*
Y74606D01*
X122835Y83661D02*
X131890Y74606D01*
X107468Y114765D02*
X108844Y116142D01*
X112678D01*
X108187Y117729D02*
X112021D01*
X105499Y115042D02*
X108187Y117729D01*
X112205Y117913D02*
Y120079D01*
X112021Y117729D02*
X112205Y117913D01*
X103347Y111024D02*
Y121063D01*
X107468Y111208D02*
Y114765D01*
X112678Y116142D02*
X116142Y119606D01*
Y120079D01*
X105499Y111208D02*
Y115042D01*
X105315Y111024D02*
X105499Y111208D01*
X107283Y111024D02*
X107468Y111208D01*
X113728Y130905D02*
X118938Y136115D01*
X105315Y130905D02*
X113728D01*
X103347Y128937D02*
X105315Y130905D01*
X79724Y76772D02*
X84646Y81693D01*
X153169Y31122D02*
X154528Y32480D01*
X167323D01*
Y36417D01*
X45066Y76772D02*
Y94983D01*
X22638Y101378D02*
X38671D01*
X45066Y94983D01*
X22638Y89567D02*
X24606D01*
X45066Y76772D02*
X45276D01*
X45066Y94983D02*
X45765Y95682D01*
X51390D01*
X22638Y83661D02*
X39973Y66326D01*
X165957Y110617D02*
X171260Y105315D01*
X164289Y110617D02*
X165957D01*
X106218Y64358D02*
X110317D01*
X104249Y66326D02*
X106218Y64358D01*
X39973Y66326D02*
X104249D01*
X115157Y68898D02*
Y77953D01*
Y68898D02*
X116142Y67913D01*
X110317Y69501D02*
X111824Y67994D01*
Y65864D02*
Y67994D01*
X110317Y64358D02*
X111824Y65864D01*
X108567Y66929D02*
X109252D01*
Y73795D02*
X109474Y73573D01*
Y70128D02*
Y73573D01*
Y70128D02*
X110101Y69501D01*
X110317D01*
X107283Y73519D02*
X107887Y72916D01*
Y67532D02*
Y72916D01*
X105315Y69882D02*
Y77953D01*
X126969Y93504D02*
X128937Y91535D01*
X122835Y93504D02*
X126969D01*
X129121Y101194D02*
X145669Y84646D01*
X123019Y101194D02*
X129121D01*
X126969Y95472D02*
X128937Y97441D01*
X122835Y95472D02*
X126969D01*
X117126Y111024D02*
X150787D01*
X171260Y90551D01*
X113189Y93504D02*
Y104331D01*
X117126Y101378D02*
X119095Y103347D01*
X122835Y101378D02*
X123019Y101194D01*
X96457Y95472D02*
X100394D01*
X94488Y93504D02*
X96457Y95472D01*
X89764Y93504D02*
X94488D01*
X96838Y103266D02*
X105918Y94185D01*
Y90170D02*
Y94185D01*
X89764Y91535D02*
X103347D01*
X105315Y89567D02*
X105918Y90170D01*
X102281Y88964D02*
X104712D01*
X105315Y89567D01*
X101678D02*
X102281Y88964D01*
X89764Y89567D02*
X101678D01*
X105315D02*
X117126D01*
X102362Y127953D02*
X103347Y128937D01*
X96457Y127953D02*
X102362D01*
X107887Y67532D02*
X107925Y67571D01*
X108567Y66929D01*
X107283Y73519D02*
Y77953D01*
X109252Y73795D02*
Y77953D01*
X101378Y68898D02*
Y71850D01*
X103347Y73819D01*
Y77953D01*
X61024Y72835D02*
X99817D01*
X71850Y68898D02*
X101378D01*
X54921Y92323D02*
X71457Y75787D01*
X47441Y86417D02*
X61024Y72835D01*
X99817D02*
X101194Y74211D01*
X47441Y86417D02*
Y92323D01*
X101194Y74211D02*
Y77768D01*
X101378Y77953D01*
X62992Y105807D02*
Y109252D01*
Y102362D02*
Y105807D01*
X69980Y94488D02*
X70276Y94784D01*
X62992Y94488D02*
X69980D01*
X79331Y102067D02*
Y108661D01*
X78740Y109252D02*
X79331Y108661D01*
X70866Y109252D02*
X78740D01*
X62992Y102362D02*
X62992Y102362D01*
X89579Y95288D02*
X89764Y95472D01*
X86355Y95288D02*
X89579D01*
X82589Y91523D02*
X86355Y95288D01*
X76277Y91523D02*
X82589D01*
X75578Y92222D02*
X76277Y91523D01*
X75578Y92222D02*
Y94664D01*
X75458Y94784D02*
X75578Y94664D01*
X70276Y94784D02*
X75458D01*
X83957Y97441D02*
X89764D01*
X79331Y102067D02*
X83957Y97441D01*
X88583Y121063D02*
X95472Y114173D01*
X88583Y121063D02*
Y127953D01*
X97257Y111208D02*
X97441Y111024D01*
X97257Y111208D02*
Y120263D01*
X96457Y121063D02*
X97257Y120263D01*
X96457Y121063D02*
Y127953D01*
X117126Y74803D02*
X124016Y67913D01*
X117126Y74803D02*
Y77953D01*
X84646Y81693D02*
Y87169D01*
X86859Y89383D01*
X89579D01*
X89764Y89567D01*
X86614Y91535D02*
X89764D01*
X79724Y84646D02*
X86614Y91535D01*
X95472Y111024D02*
Y114173D01*
X93831Y105642D02*
X95472Y107283D01*
X93504Y105315D02*
X93831Y105642D01*
X95854D01*
X96838Y104657D01*
Y103266D02*
Y104657D01*
X97441Y106299D02*
X99409Y104331D01*
X97441Y106299D02*
Y111024D01*
X113189Y84646D02*
X115157Y82677D01*
X113989Y105131D02*
X122650D01*
X113189Y104331D02*
X113989Y105131D01*
X113189Y93504D02*
X117126Y89567D01*
X119095Y103347D02*
X122835D01*
X115157Y77953D02*
Y82677D01*
X117126Y77953D02*
Y89567D01*
X122650Y105131D02*
X122835Y105315D01*
X89764D02*
X93504D01*
X95472Y107283D02*
Y111024D01*
X54921Y99213D02*
Y102559D01*
X51390Y95682D02*
X54921Y99213D01*
X99409Y23622D02*
X100394D01*
X92520Y30512D02*
X99409Y23622D01*
D20*
X132087Y130709D02*
X137402D01*
X140157Y127953D02*
X171260D01*
X137402Y130709D02*
X140157Y127953D01*
X91535Y171260D02*
X132087Y130709D01*
X118504Y21122D02*
X127165D01*
X118504Y16142D02*
Y21122D01*
X113189Y21654D02*
X118504D01*
X116299Y13937D02*
X118504Y16142D01*
X152559Y41339D02*
X157480Y46260D01*
X150787Y41339D02*
X152559D01*
X143307Y49213D02*
X150787D01*
X111417Y23425D02*
X113189Y21654D01*
X111417Y23425D02*
Y37402D01*
Y45276D02*
X118898D01*
X118110Y33465D02*
Y36614D01*
Y29528D02*
Y33465D01*
Y36614D02*
X118898Y37402D01*
X89653Y59732D02*
X94266Y64345D01*
X89653Y46587D02*
Y59732D01*
Y46587D02*
X92520Y43720D01*
Y30512D02*
Y43720D01*
X113805Y67913D02*
X116142D01*
X113805Y65043D02*
Y67913D01*
X111138Y62376D02*
X113805Y65043D01*
X105397Y62376D02*
X111138D01*
X103429Y64345D02*
X105397Y62376D01*
X94266Y64345D02*
X103429D01*
X107283Y139764D02*
Y139764D01*
X103347Y143701D02*
X107283Y139764D01*
X91535Y138779D02*
X96457Y133858D01*
X81535Y148779D02*
X91535Y138779D01*
X96457Y143701D01*
Y151575D02*
X104331D01*
X24606Y89567D02*
X37402Y76772D01*
X49213Y20669D02*
X50197Y19685D01*
X108268Y31496D02*
Y33465D01*
X143787Y24975D02*
Y41339D01*
X148425Y31122D02*
X153169D01*
X143787Y24975D02*
X147640Y21122D01*
X148425D01*
X164823D01*
X148425Y26122D02*
X157028D01*
X127165Y31122D02*
Y37205D01*
X121516Y26122D02*
X127165D01*
X148425Y16122D02*
X153917D01*
X116299Y5906D02*
Y13937D01*
X118110Y29528D02*
X121516Y26122D01*
X36417Y27559D02*
X41339D01*
X45276Y35433D02*
X49213D01*
X41339D02*
X45276D01*
X49213Y6890D02*
Y11811D01*
X41339D02*
Y19685D01*
X50197D02*
X53543D01*
X49213Y20669D02*
Y27559D01*
X41339D02*
X49213D01*
X53543Y19685D02*
X59449Y13780D01*
X45276Y112205D02*
X51181Y106299D01*
X45276Y112205D02*
Y122047D01*
Y127953D01*
X41339Y131890D02*
X45276Y127953D01*
X18543Y131890D02*
X41339D01*
X4921Y118268D02*
X18543Y131890D01*
X54134Y109252D02*
X62992D01*
X51181Y106299D02*
X54134Y109252D01*
X23406Y107283D02*
X42717D01*
X22638D02*
X23406D01*
X42717D02*
X47441Y102559D01*
X37402Y121279D02*
Y122047D01*
X23406Y107283D02*
X37402Y121279D01*
X14764Y107283D02*
Y113189D01*
X13780Y108268D02*
X14764Y107283D01*
X4921Y108268D02*
X13780D01*
X4921Y98268D02*
X11654D01*
X14764Y101378D01*
Y95472D02*
Y101378D01*
X13465Y88268D02*
X14764Y89567D01*
X4921Y88268D02*
X13465D01*
X107283Y30512D02*
X108268Y31496D01*
X100394Y30512D02*
X107283D01*
X171260Y127953D02*
X176181D01*
X161417Y80709D02*
X165354Y76772D01*
X171260D01*
X59449Y13780D02*
X82284D01*
X96457Y127953D02*
Y133858D01*
X81535Y148779D02*
Y171260D01*
X178465Y76772D02*
X181102Y79409D01*
X171260Y76772D02*
X178465D01*
X165354Y113189D02*
X171260D01*
X159449Y38386D02*
X163386Y42323D01*
X159449Y36417D02*
Y38386D01*
X126969Y45276D02*
Y49213D01*
X19685Y95472D02*
X22638D01*
X19685Y113189D02*
X22638D01*
X51181Y102559D02*
Y106299D01*
X14764Y83661D02*
Y89567D01*
X167323Y84646D02*
X171260D01*
Y90551D02*
X172402Y89410D01*
X181102D01*
X171260Y98425D02*
X172244Y99410D01*
X181102D01*
Y79409D02*
X182087Y78425D01*
X171260Y98425D02*
Y105315D01*
Y113189D02*
Y120079D01*
X171929Y119409D01*
X181102D01*
X100394Y15748D02*
X100394Y15748D01*
X100394Y15748D02*
Y23622D01*
X126969Y37402D02*
X127165Y37205D01*
X157028Y26122D02*
X159449Y28543D01*
X167323Y23622D02*
Y28543D01*
X164823Y21122D02*
X167323Y23622D01*
X125984Y14941D02*
X127165Y16122D01*
X125984Y14764D02*
Y14941D01*
Y6221D02*
Y14764D01*
Y6221D02*
X126299Y5906D01*
X92520Y19685D02*
Y23622D01*
Y15748D02*
Y19685D01*
X82284Y4724D02*
X95118D01*
X100394Y10000D02*
Y15748D01*
X96299Y5906D02*
X100394Y10000D01*
X91732Y22835D02*
X92520Y23622D01*
X82284Y22835D02*
X91732D01*
X92520Y23622D02*
X92520Y23622D01*
X95118Y4724D02*
X96299Y5906D01*
D21*
X105315Y23622D02*
X106299Y24606D01*
X100394Y23622D02*
X105315D01*
X51181Y88583D02*
Y92323D01*
D22*
X150689Y143642D02*
D03*
X139272Y143799D02*
D03*
X4921Y78268D02*
D03*
X181102Y79409D02*
D03*
X150591Y73976D02*
D03*
X138779Y63976D02*
D03*
D23*
X150689Y153642D02*
D03*
X139272Y153799D02*
D03*
X4921Y98268D02*
D03*
Y88268D02*
D03*
Y108268D02*
D03*
Y118268D02*
D03*
X181102Y99410D02*
D03*
Y89410D02*
D03*
Y109409D02*
D03*
Y119409D02*
D03*
X150591Y63976D02*
D03*
X138779Y73976D02*
D03*
X49213Y171260D02*
D03*
X91535D02*
D03*
X101535D02*
D03*
X81535D02*
D03*
X106299Y5906D02*
D03*
X116299D02*
D03*
X96299D02*
D03*
D24*
X59213Y171260D02*
D03*
X111535D02*
D03*
X126299Y5906D02*
D03*
D25*
X169291Y147638D02*
D03*
X175197Y135827D02*
D03*
Y64960D02*
D03*
X169291Y53149D02*
D03*
X175197Y41339D02*
D03*
X157480Y147638D02*
D03*
X163386Y135827D02*
D03*
X157480Y100394D02*
D03*
X163386Y64960D02*
D03*
X157480Y53149D02*
D03*
X151575Y135827D02*
D03*
X145669Y124016D02*
D03*
Y100394D02*
D03*
X151575Y88583D02*
D03*
X145669Y5905D02*
D03*
X139764Y135827D02*
D03*
X133858Y100394D02*
D03*
Y53149D02*
D03*
Y29528D02*
D03*
X139764Y17717D02*
D03*
X133858Y5905D02*
D03*
X127953Y159449D02*
D03*
X122047Y124016D02*
D03*
Y76772D02*
D03*
X116142Y159449D02*
D03*
X110236Y147638D02*
D03*
X116142Y135827D02*
D03*
X110236Y100394D02*
D03*
Y53149D02*
D03*
X98425D02*
D03*
X104331Y41339D02*
D03*
X92520Y159449D02*
D03*
X86614Y147638D02*
D03*
X92520Y112205D02*
D03*
X86614Y53149D02*
D03*
X92520Y41339D02*
D03*
X86614Y29528D02*
D03*
X80709Y159449D02*
D03*
X74803Y124016D02*
D03*
X80709Y112205D02*
D03*
X74803Y53149D02*
D03*
X80709Y41339D02*
D03*
X74803Y29528D02*
D03*
Y5905D02*
D03*
X62992Y147638D02*
D03*
X68898Y135827D02*
D03*
X62992Y124016D02*
D03*
Y53149D02*
D03*
X68898Y41339D02*
D03*
X62992Y29528D02*
D03*
X68898Y17717D02*
D03*
X51181Y147638D02*
D03*
X57086Y135827D02*
D03*
X51181Y124016D02*
D03*
X57086Y112205D02*
D03*
X51181Y76772D02*
D03*
Y53149D02*
D03*
X57086Y41339D02*
D03*
X45276Y159449D02*
D03*
X39370Y147638D02*
D03*
X45276Y135827D02*
D03*
X39370Y53149D02*
D03*
X45276Y41339D02*
D03*
X39370Y5905D02*
D03*
X33465Y159449D02*
D03*
X27559Y147638D02*
D03*
X33465Y135827D02*
D03*
X27559Y124016D02*
D03*
X33465Y112205D02*
D03*
Y88583D02*
D03*
X27559Y53149D02*
D03*
X33465Y41339D02*
D03*
X27559Y29528D02*
D03*
X33465Y17717D02*
D03*
X15748Y147638D02*
D03*
X21654Y135827D02*
D03*
X15748Y124016D02*
D03*
Y76772D02*
D03*
Y53149D02*
D03*
Y29528D02*
D03*
X9843Y135827D02*
D03*
Y112205D02*
D03*
Y64960D02*
D03*
X3937Y53149D02*
D03*
X9843Y41339D02*
D03*
X155170Y124358D02*
D03*
X133858Y131102D02*
D03*
Y105512D02*
D03*
X107283Y139764D02*
D03*
X120079Y120079D02*
D03*
X112205Y120079D02*
D03*
X116142D02*
D03*
X106299Y24606D02*
D03*
X36417Y27559D02*
D03*
X45276Y35433D02*
D03*
X49213Y6890D02*
D03*
X45276Y112205D02*
D03*
X29528Y84646D02*
D03*
X176181Y127953D02*
D03*
X161417Y80709D02*
D03*
X84646Y62008D02*
D03*
X109252Y66929D02*
D03*
X105315Y69882D02*
D03*
X128937Y91535D02*
D03*
Y97441D02*
D03*
X117126Y101378D02*
D03*
X165354Y113189D02*
D03*
X100394Y95472D02*
D03*
X103347Y91535D02*
D03*
X163386Y42323D02*
D03*
X126969Y50197D02*
D03*
X71850Y68898D02*
D03*
X71457Y75787D02*
D03*
X84646Y80709D02*
D03*
X62992Y105807D02*
D03*
X113189Y84646D02*
D03*
X99409Y104331D02*
D03*
X51181Y88583D02*
D03*
X19685Y95472D02*
D03*
Y113189D02*
D03*
X167323Y84646D02*
D03*
X118110Y33465D02*
D03*
X107283D02*
D03*
X157480Y46260D02*
D03*
X153169Y31122D02*
D03*
X125984Y14764D02*
D03*
X153917Y16122D02*
D03*
X92520Y19685D02*
D03*
M02*
