G04 Layer_Color=32768*
%FSLAX25Y25*%
%MOIN*%
G70*
G01*
G75*
%ADD41C,0.00394*%
%ADD42C,0.00197*%
D41*
X148819Y45276D02*
X152756D01*
X150787Y43307D02*
Y47244D01*
X148031Y38681D02*
X153543D01*
X148031Y51870D02*
X153543D01*
X148031Y38681D02*
Y51870D01*
X153543Y38681D02*
Y51870D01*
X141339Y45276D02*
X145276D01*
X143307Y43307D02*
Y47244D01*
X140551Y51870D02*
X146063D01*
X140551Y38681D02*
X146063D01*
Y51870D01*
X140551Y38681D02*
Y51870D01*
X148721Y148642D02*
X152657D01*
X150689Y146673D02*
Y150610D01*
X137303Y148799D02*
X141240D01*
X139272Y146831D02*
Y150768D01*
X2953Y98268D02*
X6890D01*
X4921Y96299D02*
Y100236D01*
X179134Y99410D02*
X183071D01*
X181102Y97441D02*
Y101378D01*
X85827Y74016D02*
Y114961D01*
X126772Y74016D02*
Y114961D01*
X85827D02*
X126772D01*
X85827Y74016D02*
X126772D01*
X104331Y94488D02*
X108268D01*
X106299Y92520D02*
Y96457D01*
X106102Y140945D02*
Y154331D01*
X100591Y140945D02*
Y154331D01*
X106102D01*
X100591Y140945D02*
X106102D01*
X103347Y145669D02*
Y149606D01*
X101378Y147638D02*
X105315D01*
X94488D02*
X98425D01*
X96457Y145669D02*
Y149606D01*
X93701Y141043D02*
X99213D01*
X93701Y154232D02*
X99213D01*
X93701Y141043D02*
Y154232D01*
X99213Y141043D02*
Y154232D01*
X148622Y68976D02*
X152559D01*
X150591Y67008D02*
Y70945D01*
X136811Y68976D02*
X140748D01*
X138779Y67008D02*
Y70945D01*
X54213Y169291D02*
Y173228D01*
X52244Y171260D02*
X56181D01*
X70866Y11811D02*
Y15748D01*
X68898Y13780D02*
X72835D01*
X53740Y27953D02*
X87992D01*
X53740Y-394D02*
X87992D01*
X53740D02*
Y27953D01*
X87992Y-394D02*
Y27953D01*
X94567Y171260D02*
X98504D01*
X96535Y169291D02*
Y173228D01*
X82677Y91732D02*
Y105118D01*
X66929D02*
X82677D01*
X66929Y92126D02*
Y105118D01*
Y91732D02*
Y92126D01*
Y91732D02*
X82677D01*
X74803Y97638D02*
Y99213D01*
X74016Y98425D02*
X75590D01*
X60236Y112008D02*
X73622D01*
X60236Y106496D02*
X73622D01*
X60236D02*
Y112008D01*
X73622Y106496D02*
Y112008D01*
X64961Y109252D02*
X68898D01*
X66929Y107283D02*
Y111221D01*
X60236Y91732D02*
Y105118D01*
X65748Y91732D02*
Y105118D01*
X60236Y91732D02*
X65748D01*
X60236Y105118D02*
X65748D01*
X62992Y96457D02*
Y100394D01*
X61024Y98425D02*
X64961D01*
X76968Y74016D02*
Y87402D01*
X82480Y74016D02*
Y87402D01*
X76968Y74016D02*
X82480D01*
X76968Y87402D02*
X82480D01*
X79724Y78740D02*
Y82677D01*
X77756Y80709D02*
X81693D01*
X45276Y105315D02*
X57087D01*
X45276Y89567D02*
X57087D01*
Y105315D01*
X45276Y89567D02*
Y105315D01*
X51181Y95472D02*
Y99409D01*
X49213Y97441D02*
X53150D01*
X18701Y105315D02*
Y109252D01*
X16732Y107283D02*
X20669D01*
X12106Y104527D02*
Y110039D01*
X25295Y104527D02*
Y110039D01*
X12106D02*
X25295D01*
X12106Y104527D02*
X25295D01*
X18701Y81693D02*
Y85630D01*
X16732Y83661D02*
X20669D01*
X25295Y80905D02*
Y86417D01*
X12106Y80905D02*
Y86417D01*
Y80905D02*
X25295D01*
X12106Y86417D02*
X25295D01*
X18701Y87598D02*
Y91535D01*
X16732Y89567D02*
X20669D01*
X12106Y86811D02*
Y92323D01*
X25295Y86811D02*
Y92323D01*
X12106D02*
X25295D01*
X12106Y86811D02*
X25295D01*
X18701Y93504D02*
Y97441D01*
X16732Y95472D02*
X20669D01*
X12106Y92716D02*
Y98228D01*
X25295Y92716D02*
Y98228D01*
X12106D02*
X25295D01*
X12106Y92716D02*
X25295D01*
X18701Y99410D02*
Y103347D01*
X16732Y101378D02*
X20669D01*
X12106Y98622D02*
Y104134D01*
X25295Y98622D02*
Y104134D01*
X12106D02*
X25295D01*
X12106Y98622D02*
X25295D01*
X18701Y111221D02*
Y115157D01*
X16732Y113189D02*
X20669D01*
X25295Y110433D02*
Y115945D01*
X12106Y110433D02*
Y115945D01*
Y110433D02*
X25295D01*
X12106Y115945D02*
X25295D01*
X34646Y124803D02*
X48031D01*
X34646Y119291D02*
X48031D01*
X34646D02*
Y124803D01*
X48031Y119291D02*
Y124803D01*
X39370Y122047D02*
X43307D01*
X41339Y120079D02*
Y124016D01*
X34646Y74016D02*
X48031D01*
X34646Y79528D02*
X48031D01*
Y74016D02*
Y79528D01*
X34646Y74016D02*
Y79528D01*
X39370Y76772D02*
X43307D01*
X41339Y74803D02*
Y78740D01*
X113386Y65158D02*
X126772D01*
X113386Y70669D02*
X126772D01*
Y65158D02*
Y70669D01*
X113386Y65158D02*
Y70669D01*
X118110Y67913D02*
X122047D01*
X120079Y65945D02*
Y69882D01*
X101378Y125000D02*
X105315D01*
X103347Y123031D02*
Y126969D01*
X100591Y118405D02*
X106102D01*
X100591Y131595D02*
X106102D01*
X100591Y118405D02*
Y131595D01*
X106102Y118405D02*
Y131595D01*
X85827Y123819D02*
X99213D01*
X85827Y118307D02*
X99213D01*
X85827D02*
Y123819D01*
X99213Y118307D02*
Y123819D01*
X90551Y121063D02*
X94488D01*
X92520Y119095D02*
Y123031D01*
X85827Y130709D02*
X99213D01*
X85827Y125197D02*
X99213D01*
X85827D02*
Y130709D01*
X99213Y125197D02*
Y130709D01*
X90551Y127953D02*
X94488D01*
X92520Y125984D02*
Y129921D01*
X46457Y24803D02*
Y38189D01*
X51968Y24803D02*
Y38189D01*
X46457Y24803D02*
X51968D01*
X46457Y38189D02*
X51968D01*
X49213Y29528D02*
Y33465D01*
X47244Y31496D02*
X51181D01*
X38583Y24803D02*
Y38189D01*
X44094Y24803D02*
Y38189D01*
X38583Y24803D02*
X44094D01*
X38583Y38189D02*
X44094D01*
X41339Y29528D02*
Y33465D01*
X39370Y31496D02*
X43307D01*
X157480Y32480D02*
X161417D01*
X159449Y30512D02*
Y34449D01*
X156693Y39075D02*
X162205D01*
X156693Y25886D02*
X162205D01*
Y39075D01*
X156693Y25886D02*
Y39075D01*
X109449Y41339D02*
X113386D01*
X111417Y39370D02*
Y43307D01*
X108661Y34744D02*
X114173D01*
X108661Y47933D02*
X114173D01*
X108661Y34744D02*
Y47933D01*
X114173Y34744D02*
Y47933D01*
X116929Y41339D02*
X120866D01*
X118898Y39370D02*
Y43307D01*
X116142Y47933D02*
X121653D01*
X116142Y34744D02*
X121653D01*
Y47933D01*
X116142Y34744D02*
Y47933D01*
X96457Y28543D02*
Y32480D01*
X94488Y30512D02*
X98425D01*
X103051Y27756D02*
Y33268D01*
X89862Y27756D02*
Y33268D01*
Y27756D02*
X103051D01*
X89862Y33268D02*
X103051D01*
X89764Y26378D02*
X103150D01*
X89764Y20866D02*
X103150D01*
X89764D02*
Y26378D01*
X103150Y20866D02*
Y26378D01*
X94488Y23622D02*
X98425D01*
X96457Y21654D02*
Y25591D01*
X89764Y18504D02*
X103150D01*
X89764Y12992D02*
X103150D01*
X89764D02*
Y18504D01*
X103150Y12992D02*
Y18504D01*
X94488Y15748D02*
X98425D01*
X96457Y13780D02*
Y17717D01*
X38583Y22441D02*
X51968D01*
X38583Y16929D02*
X51968D01*
X38583D02*
Y22441D01*
X51968Y16929D02*
Y22441D01*
X43307Y19685D02*
X47244D01*
X45276Y17717D02*
Y21654D01*
Y9843D02*
Y13780D01*
X43307Y11811D02*
X47244D01*
X51870Y9055D02*
Y14567D01*
X38681Y9055D02*
Y14567D01*
Y9055D02*
X51870D01*
X38681Y14567D02*
X51870D01*
X125000Y41339D02*
X128937D01*
X126969Y39370D02*
Y43307D01*
X124213Y47933D02*
X129724D01*
X124213Y34744D02*
X129724D01*
Y47933D01*
X124213Y34744D02*
Y47933D01*
X109331Y5906D02*
X113268D01*
X111299Y3937D02*
Y7874D01*
X151575Y13780D02*
Y33465D01*
X124016D02*
X151575D01*
X124016Y13780D02*
Y33465D01*
Y13780D02*
X151575D01*
X137795Y22638D02*
Y24606D01*
X136811Y23622D02*
X138779D01*
X165354Y32480D02*
X169291D01*
X167323Y30512D02*
Y34449D01*
X164567Y39075D02*
X170079D01*
X164567Y25886D02*
X170079D01*
Y39075D01*
X164567Y25886D02*
Y39075D01*
X169291Y80709D02*
X173228D01*
X171260Y78740D02*
Y82677D01*
X168504Y87303D02*
X174016D01*
X168504Y74114D02*
X174016D01*
Y87303D01*
X168504Y74114D02*
Y87303D01*
X169291Y94488D02*
X173228D01*
X171260Y92520D02*
Y96457D01*
X168504Y87894D02*
X174016D01*
X168504Y101083D02*
X174016D01*
X168504Y87894D02*
Y101083D01*
X174016Y87894D02*
Y101083D01*
X169291Y124016D02*
X173228D01*
X171260Y122047D02*
Y125984D01*
X168504Y117421D02*
X174016D01*
X168504Y130610D02*
X174016D01*
X168504Y117421D02*
Y130610D01*
X174016Y117421D02*
Y130610D01*
Y102559D02*
Y115945D01*
X168504Y102559D02*
Y115945D01*
X174016D01*
X168504Y102559D02*
X174016D01*
X171260Y107283D02*
Y111221D01*
X169291Y109252D02*
X173228D01*
D42*
X145689Y138642D02*
X155689D01*
Y158642D01*
X145689D02*
X155689D01*
X145689Y138642D02*
Y158642D01*
X134272Y138799D02*
X144272D01*
Y158799D01*
X134272D02*
X144272D01*
X134272Y138799D02*
Y158799D01*
X-79Y73268D02*
Y123268D01*
X9921D01*
Y73268D02*
Y123268D01*
X-79Y73268D02*
X9921D01*
X176102Y74410D02*
Y124409D01*
X186102D01*
Y74410D02*
Y124409D01*
X176102Y74410D02*
X186102D01*
X145591Y78976D02*
X155591D01*
X145591Y58976D02*
Y78976D01*
Y58976D02*
X155591D01*
Y78976D01*
X133780Y58976D02*
X143780D01*
Y78976D01*
X133780D02*
X143780D01*
X133780Y58976D02*
Y78976D01*
X64213Y166260D02*
Y176260D01*
X44213D02*
X64213D01*
X44213Y166260D02*
Y176260D01*
Y166260D02*
X64213D01*
X76535D02*
X116535D01*
X76535D02*
Y176260D01*
X116535D01*
Y166260D02*
Y176260D01*
X91299Y905D02*
X131299D01*
X91299D02*
Y10905D01*
X131299D01*
Y905D02*
Y10905D01*
M02*
