G04 Layer_Color=8421504*
%FSLAX25Y25*%
%MOIN*%
G70*
G01*
G75*
%ADD10R,0.04921X0.03937*%
%ADD11O,0.05512X0.01181*%
%ADD12O,0.01181X0.05512*%
%ADD13R,0.09449X0.12992*%
%ADD14R,0.09449X0.03937*%
%ADD15R,0.05118X0.04134*%
%ADD16R,0.03937X0.04921*%
%ADD17R,0.02362X0.04331*%
G04:AMPARAMS|DCode=18|XSize=61.02mil|YSize=23.62mil|CornerRadius=11.81mil|HoleSize=0mil|Usage=FLASHONLY|Rotation=180.000|XOffset=0mil|YOffset=0mil|HoleType=Round|Shape=RoundedRectangle|*
%AMROUNDEDRECTD18*
21,1,0.06102,0.00000,0,0,180.0*
21,1,0.03740,0.02362,0,0,180.0*
1,1,0.02362,-0.01870,0.00000*
1,1,0.02362,0.01870,0.00000*
1,1,0.02362,0.01870,0.00000*
1,1,0.02362,-0.01870,0.00000*
%
%ADD18ROUNDEDRECTD18*%
D10*
X150787Y49213D02*
D03*
Y41339D02*
D03*
X143307D02*
D03*
Y49213D02*
D03*
X103347Y143701D02*
D03*
Y151575D02*
D03*
X96457D02*
D03*
Y143701D02*
D03*
X62992Y102362D02*
D03*
Y94488D02*
D03*
X79724Y84646D02*
D03*
Y76772D02*
D03*
X103347Y128937D02*
D03*
Y121063D02*
D03*
X49213Y35433D02*
D03*
Y27559D02*
D03*
X41339Y35433D02*
D03*
Y27559D02*
D03*
X159449Y28543D02*
D03*
Y36417D02*
D03*
X111417Y45276D02*
D03*
Y37402D02*
D03*
X118898D02*
D03*
Y45276D02*
D03*
X126969Y37402D02*
D03*
Y45276D02*
D03*
X167323Y28543D02*
D03*
Y36417D02*
D03*
X171260Y76772D02*
D03*
Y84646D02*
D03*
Y98425D02*
D03*
Y90551D02*
D03*
Y127953D02*
D03*
Y120079D02*
D03*
Y105315D02*
D03*
Y113189D02*
D03*
D11*
X89764Y105315D02*
D03*
Y103347D02*
D03*
Y101378D02*
D03*
Y99410D02*
D03*
Y97441D02*
D03*
Y95472D02*
D03*
Y93504D02*
D03*
Y91535D02*
D03*
Y89567D02*
D03*
Y87598D02*
D03*
Y85630D02*
D03*
Y83661D02*
D03*
X122835D02*
D03*
Y85630D02*
D03*
Y87598D02*
D03*
Y89567D02*
D03*
Y91535D02*
D03*
Y93504D02*
D03*
Y95472D02*
D03*
Y97441D02*
D03*
Y99410D02*
D03*
Y101378D02*
D03*
Y103347D02*
D03*
Y105315D02*
D03*
D12*
X95472Y77953D02*
D03*
X97441D02*
D03*
X99410D02*
D03*
X101378D02*
D03*
X103347D02*
D03*
X105315D02*
D03*
X107283D02*
D03*
X109252D02*
D03*
X111221D02*
D03*
X113189D02*
D03*
X115157D02*
D03*
X117126D02*
D03*
Y111024D02*
D03*
X115157D02*
D03*
X113189D02*
D03*
X111221D02*
D03*
X109252D02*
D03*
X107283D02*
D03*
X105315D02*
D03*
X103347D02*
D03*
X101378D02*
D03*
X99410D02*
D03*
X97441D02*
D03*
X95472D02*
D03*
D13*
X59449Y13780D02*
D03*
D14*
X82284Y22835D02*
D03*
Y13780D02*
D03*
Y4724D02*
D03*
D15*
X70276Y94784D02*
D03*
Y102067D02*
D03*
X79331D02*
D03*
Y94784D02*
D03*
D16*
X70866Y109252D02*
D03*
X62992D02*
D03*
X22638Y107283D02*
D03*
X14764D02*
D03*
Y83661D02*
D03*
X22638D02*
D03*
Y89567D02*
D03*
X14764D02*
D03*
X22638Y95472D02*
D03*
X14764D02*
D03*
X22638Y101378D02*
D03*
X14764D02*
D03*
Y113189D02*
D03*
X22638D02*
D03*
X45276Y122047D02*
D03*
X37402D02*
D03*
Y76772D02*
D03*
X45276D02*
D03*
X116142Y67913D02*
D03*
X124016D02*
D03*
X96457Y121063D02*
D03*
X88583D02*
D03*
X96457Y127953D02*
D03*
X88583D02*
D03*
X92520Y30512D02*
D03*
X100394D02*
D03*
Y23622D02*
D03*
X92520D02*
D03*
X100394Y15748D02*
D03*
X92520D02*
D03*
X49213Y19685D02*
D03*
X41339D02*
D03*
Y11811D02*
D03*
X49213D02*
D03*
D17*
X54921Y102559D02*
D03*
X51181D02*
D03*
X47441D02*
D03*
Y92323D02*
D03*
X51181D02*
D03*
X54921D02*
D03*
D18*
X148425Y16122D02*
D03*
Y21122D02*
D03*
Y26122D02*
D03*
Y31122D02*
D03*
X127165D02*
D03*
Y26122D02*
D03*
Y21122D02*
D03*
Y16122D02*
D03*
M02*
