M48
;Layer_Color=9474304
;FILE_FORMAT=2:5
INCH,LZ
;TYPE=PLATED
T1F00S00C0.01181
T2F00S00C0.04331
%
T01
X0125984Y0014764
X011811Y0033465
X0153169Y0031122
X0153917Y0016122
X015748Y004626
X0163386Y0042323
X0107283Y0033465
X0106299Y0024606
X009252Y0019685
X0068898Y0029528
X0045276Y0035433
X0036417Y0027559
X0029528Y0029528
X0049213Y000689
X003937Y0049213
X0059055
X007874
X0084646Y0062008
Y0080709
X0071457Y0075787
X007185Y0068898
X0105315Y0069882
X0109252Y0066929
X0113189Y0084646
X0103347Y0091535
X0100394Y0095472
X0099409Y0104331
X0088583Y0108268
X0062992Y0105807
X0049213Y0108268
X0045276Y0112205
X003937Y0127953
X0019685
X0019685Y0113189
Y0095472
X0029528Y0084646
X003937Y0088583
X0051181Y0088583
X0029528Y0068898
Y0147638
X0049213
X0059055Y0127953
X007874
X0088583Y0147638
X0108268
X0107283Y0139764
X0112205Y0120079
X0098425Y0049213
X0126969Y0050197
X0128937Y0091535
Y0097441
X0133858Y0105512
X0147638Y0108268
X0165354Y0113189
X015517Y0124358
X0176181Y0127953
X0167323Y0147638
X0127953
X0133858Y0131102
X011811Y0127953
X0120079Y0120079
X0116142Y0120079
X0117126Y0101378
X015748Y0088583
X0161417Y0080709
X0167323Y0084646
X0167323Y0068898
T02
X0116299Y0005906
X0126299
X0106299
X0096299
X0004921Y0078268
Y0088268
Y0098268
Y0108268
Y0118268
X0049213Y017126
X0059213
X0081535
X0091535
X0101535
X0111535
X0139272Y0153799
Y0143799
X0150689Y0143642
Y0153642
X0181102Y0119409
Y0109409
Y009941
Y008941
Y0079409
X0150591Y0073976
Y0063976
X0138779
Y0073976
M30
